<?xml version="1.0" encoding="UTF-8" standalone="no"?>
<!-- Created with Inkscape (http://www.inkscape.org/) -->

<svg
   xmlns:dc="http://purl.org/dc/elements/1.1/"
   xmlns:cc="http://creativecommons.org/ns#"
   xmlns:rdf="http://www.w3.org/1999/02/22-rdf-syntax-ns#"
   xmlns:svg="http://www.w3.org/2000/svg"
   xmlns="http://www.w3.org/2000/svg"
   xmlns:sodipodi="http://sodipodi.sourceforge.net/DTD/sodipodi-0.dtd"
   xmlns:inkscape="http://www.inkscape.org/namespaces/inkscape"
   width="20.275248mm"
   height="18.717201mm"
   viewBox="0 0 20.275248 18.717201"
   version="1.1"
   id="svg8"
   inkscape:version="0.92.3 (2405546, 2018-03-11)"
   sodipodi:docname="calendar.svg">
  <defs
     id="defs2" />
  <sodipodi:namedview
     id="base"
     pagecolor="#ffffff"
     bordercolor="#666666"
     borderopacity="1.0"
     inkscape:pageopacity="0.0"
     inkscape:pageshadow="2"
     inkscape:zoom="1.4"
     inkscape:cx="-9.5200653"
     inkscape:cy="125.02269"
     inkscape:document-units="mm"
     inkscape:current-layer="layer1"
     showgrid="false"
     inkscape:window-width="1366"
     inkscape:window-height="725"
     inkscape:window-x="0"
     inkscape:window-y="20"
     inkscape:window-maximized="1" />
  <metadata
     id="metadata5">
    <rdf:RDF>
      <cc:Work
         rdf:about="">
        <dc:format>image/svg+xml</dc:format>
        <dc:type
           rdf:resource="http://purl.org/dc/dcmitype/StillImage" />
        <dc:title></dc:title>
      </cc:Work>
    </rdf:RDF>
  </metadata>
  <g
     inkscape:label="Layer 1"
     inkscape:groupmode="layer"
     id="layer1"
     transform="translate(88.179628,-90.708675)">
    <path
       style="color:#000000;font-style:normal;font-variant:normal;font-weight:normal;font-stretch:normal;font-size:medium;line-height:normal;font-family:sans-serif;font-variant-ligatures:normal;font-variant-position:normal;font-variant-caps:normal;font-variant-numeric:normal;font-variant-alternates:normal;font-feature-settings:normal;text-indent:0;text-align:start;text-decoration:none;text-decoration-line:none;text-decoration-style:solid;text-decoration-color:#000000;letter-spacing:normal;word-spacing:normal;text-transform:none;writing-mode:lr-tb;direction:ltr;text-orientation:mixed;dominant-baseline:auto;baseline-shift:baseline;text-anchor:start;white-space:normal;shape-padding:0;clip-rule:nonzero;display:inline;overflow:visible;visibility:visible;opacity:1;isolation:auto;mix-blend-mode:normal;color-interpolation:sRGB;color-interpolation-filters:linearRGB;solid-color:#000000;solid-opacity:1;vector-effect:none;fill:#000000;fill-opacity:1;fill-rule:nonzero;stroke:none;stroke-width:6.42519712;stroke-linecap:round;stroke-linejoin:round;stroke-miterlimit:4;stroke-dasharray:none;stroke-dashoffset:0;stroke-opacity:1;color-rendering:auto;image-rendering:auto;shape-rendering:auto;text-rendering:auto;enable-background:accumulate"
       d="m -303.67773,342.83594 c -2.08042,0 -3.75391,1.67349 -3.75391,3.7539 v 3.48828 h -19.54102 c -3.43805,0 -6.30468,2.86663 -6.30468,6.30469 v 10.48242 40.40039 c 0,3.43805 2.86663,6.3125 6.30468,6.3125 h 64.01563 c 3.43806,0 6.31055,-2.87445 6.31055,-6.3125 v -40.40039 -10.48242 c 0,-3.43806 -2.87249,-6.30469 -6.31055,-6.30469 h -19.53906 v -3.48828 c 0,-2.08041 -1.67545,-3.7539 -3.75586,-3.7539 -2.08041,0 -3.75586,1.67349 -3.75586,3.7539 v 3.48828 h -9.91407 v -3.48828 c 0,-2.08041 -1.67544,-3.7539 -3.75585,-3.7539 z m -23.17774,13.66601 h 19.43359 c 0.0506,2.03569 1.69583,3.66211 3.74415,3.66211 2.04831,0 3.6955,-1.62642 3.74609,-3.66211 h 9.93359 c 0.0506,2.03569 1.69779,3.66211 3.7461,3.66211 2.04831,0 3.6955,-1.62642 3.74609,-3.66211 h 19.42969 v 10.24414 h -63.7793 z m 0,16.66797 h 63.7793 v 33.97852 h -63.7793 z m 11.28906,10.59961 c -0.77403,0 -1.39843,0.62244 -1.39843,1.39649 v 10.24218 c 0,0.77401 0.6244,1.39649 1.39843,1.39649 h 10.77539 c 0.77404,0 1.39844,-0.62248 1.39844,-1.39649 v -10.24218 c 0,-0.77405 -0.6244,-1.39649 -1.39844,-1.39649 z"
       transform="scale(0.26458333)"
       id="rect826"
       inkscape:connector-curvature="0" />
  </g>
</svg>
