<?xml version="1.0" encoding="UTF-8" standalone="no"?>
<!-- Created with Inkscape (http://www.inkscape.org/) -->

<svg
   xmlns:dc="http://purl.org/dc/elements/1.1/"
   xmlns:cc="http://creativecommons.org/ns#"
   xmlns:rdf="http://www.w3.org/1999/02/22-rdf-syntax-ns#"
   xmlns:svg="http://www.w3.org/2000/svg"
   xmlns="http://www.w3.org/2000/svg"
   xmlns:sodipodi="http://sodipodi.sourceforge.net/DTD/sodipodi-0.dtd"
   xmlns:inkscape="http://www.inkscape.org/namespaces/inkscape"
   width="7.1328745mm"
   height="6.6151452mm"
   viewBox="0 0 7.1328745 6.6151452"
   version="1.1"
   id="svg8"
   sodipodi:docname="chat.svg"
   inkscape:version="0.92.3 (2405546, 2018-03-11)">
  <defs
     id="defs2">
    <clipPath
       clipPathUnits="userSpaceOnUse"
       id="clipPath830">
      <rect
         style="opacity:0.58999999;vector-effect:none;fill:#ffffff;fill-opacity:1;stroke:#000000;stroke-width:0.13229166;stroke-linecap:round;stroke-linejoin:round;stroke-miterlimit:4;stroke-dasharray:none;stroke-dashoffset:0;stroke-opacity:1"
         id="rect832"
         width="82.396744"
         height="470.50974"
         x="-589.13977"
         y="-209.85843" />
    </clipPath>
  </defs>
  <sodipodi:namedview
     id="base"
     pagecolor="#ffffff"
     bordercolor="#666666"
     borderopacity="1.0"
     inkscape:pageopacity="0.0"
     inkscape:pageshadow="2"
     inkscape:zoom="0.7"
     inkscape:cx="234.05028"
     inkscape:cy="-183.72847"
     inkscape:document-units="mm"
     inkscape:current-layer="layer1"
     showgrid="false"
     inkscape:window-width="1366"
     inkscape:window-height="725"
     inkscape:window-x="0"
     inkscape:window-y="20"
     inkscape:window-maximized="1" />
  <metadata
     id="metadata5">
    <rdf:RDF>
      <cc:Work
         rdf:about="">
        <dc:format>image/svg+xml</dc:format>
        <dc:type
           rdf:resource="http://purl.org/dc/dcmitype/StillImage" />
        <dc:title />
      </cc:Work>
    </rdf:RDF>
  </metadata>
  <g
     inkscape:label="Layer 1"
     inkscape:groupmode="layer"
     id="layer1"
     transform="translate(439.17969,-238.92266)">
    <path
       style="color:#000000;font-style:normal;font-variant:normal;font-weight:normal;font-stretch:normal;font-size:medium;line-height:normal;font-family:sans-serif;font-variant-ligatures:normal;font-variant-position:normal;font-variant-caps:normal;font-variant-numeric:normal;font-variant-alternates:normal;font-feature-settings:normal;text-indent:0;text-align:start;text-decoration:none;text-decoration-line:none;text-decoration-style:solid;text-decoration-color:#000000;letter-spacing:normal;word-spacing:normal;text-transform:none;writing-mode:lr-tb;direction:ltr;text-orientation:mixed;dominant-baseline:auto;baseline-shift:baseline;text-anchor:start;white-space:normal;shape-padding:0;clip-rule:nonzero;display:inline;overflow:visible;visibility:visible;opacity:1;isolation:auto;mix-blend-mode:normal;color-interpolation:sRGB;color-interpolation-filters:linearRGB;solid-color:#000000;solid-opacity:1;vector-effect:none;fill:#000000;fill-opacity:1;fill-rule:nonzero;stroke:none;stroke-width:0.24377553;stroke-linecap:round;stroke-linejoin:round;stroke-miterlimit:4;stroke-dasharray:none;stroke-dashoffset:0;stroke-opacity:1;color-rendering:auto;image-rendering:auto;shape-rendering:auto;text-rendering:auto;enable-background:accumulate"
       d="m -436.26758,238.92188 c -1.42088,0.008 -2.56825,1.16897 -2.5625,2.58984 0.002,0.37045 0.084,0.73677 0.24024,1.07226 0.0132,0.0398 0.0268,0.0683 0.0371,0.11329 0.0118,0.052 0.0192,0.11941 0.002,0.21289 -0.0344,0.18695 -0.17096,0.48443 -0.59375,0.91601 a 0.12189995,0.12189995 0 0 0 0.10547,0.20508 c 0.001,-3e-4 -0.005,0.002 -0.004,0.002 0.006,2.9e-4 0.0179,4.9e-4 0.0332,0.002 0.0306,0.003 0.0765,0.008 0.13086,0.0137 0.10872,0.011 0.25626,0.0235 0.42969,0.0273 0.34687,0.008 0.79114,-0.0198 1.21094,-0.17969 a 0.12189995,0.12189995 0 0 0 0.002,0 c 0.0114,-0.004 0.0209,-0.009 0.0312,-0.0137 0.30561,0.12251 0.62932,0.19754 0.95899,0.19727 1.42082,-0.003 2.5742,-1.15727 2.57421,-2.57813 v -0.0195 a 0.12189995,0.12189995 0 0 0 0,-0.002 c -0.0116,-1.42078 -1.17491,-2.56725 -2.5957,-2.55859 z m 0.002,0.24414 c 1.28922,-0.008 2.33904,1.02718 2.3496,2.3164 v 0.0195 c -10e-6,1.28929 -1.04076,2.33113 -2.33007,2.33399 -0.31918,2.6e-4 -0.63473,-0.0648 -0.92774,-0.19141 a 0.12189995,0.12189995 0 0 0 -0.10156,0.002 c -0.0174,0.008 -0.0337,0.0148 -0.0508,0.0215 -0.37413,0.14208 -0.78913,0.1713 -1.11719,0.16406 -0.16276,-0.004 -0.30278,-0.0148 -0.4082,-0.0254 0.28554,-0.33672 0.50281,-0.64418 0.54101,-0.85156 0.0233,-0.1267 0.0141,-0.23147 -0.004,-0.31055 -0.018,-0.0791 -0.0453,-0.14106 -0.0469,-0.14648 a 0.12189995,0.12189995 0 0 0 -0.008,-0.0176 c -0.1416,-0.30399 -0.2149,-0.63374 -0.2168,-0.96875 -0.005,-1.2893 1.03105,-2.33809 2.32032,-2.3457 z"
       id="path919"
       inkscape:connector-curvature="0" />
    <path
       style="color:#000000;font-style:normal;font-variant:normal;font-weight:normal;font-stretch:normal;font-size:medium;line-height:normal;font-family:sans-serif;font-variant-ligatures:normal;font-variant-position:normal;font-variant-caps:normal;font-variant-numeric:normal;font-variant-alternates:normal;font-feature-settings:normal;text-indent:0;text-align:start;text-decoration:none;text-decoration-line:none;text-decoration-style:solid;text-decoration-color:#000000;letter-spacing:normal;word-spacing:normal;text-transform:none;writing-mode:lr-tb;direction:ltr;text-orientation:mixed;dominant-baseline:auto;baseline-shift:baseline;text-anchor:start;white-space:normal;shape-padding:0;clip-rule:nonzero;display:inline;overflow:visible;visibility:visible;opacity:1;isolation:auto;mix-blend-mode:normal;color-interpolation:sRGB;color-interpolation-filters:linearRGB;solid-color:#000000;solid-opacity:1;vector-effect:none;fill:#000000;fill-opacity:1;fill-rule:nonzero;stroke:none;stroke-width:0.24377552;stroke-linecap:round;stroke-linejoin:round;stroke-miterlimit:4;stroke-dasharray:none;stroke-dashoffset:0;stroke-opacity:1;color-rendering:auto;image-rendering:auto;shape-rendering:auto;text-rendering:auto;enable-background:accumulate"
       d="m -433.35076,241.27929 c 0.44103,0.4267 0.71434,1.0255 0.71165,1.68853 -0.002,0.33494 -0.0768,0.66577 -0.21825,0.96943 -0.003,0.006 -0.005,0.0114 -0.007,0.0174 -0.001,0.006 -0.0288,0.067 -0.0468,0.14605 -0.018,0.0791 -0.0266,0.18383 -0.004,0.31053 0.0381,0.20703 0.25421,0.51561 0.53872,0.85151 -0.10531,0.0106 -0.24521,0.0229 -0.40736,0.0265 -0.32861,0.007 -0.74355,-0.0214 -1.11817,-0.16406 -0.0159,-0.006 -0.0317,-0.0137 -0.0492,-0.0219 -0.0318,-0.0151 -0.0685,-0.0156 -0.10076,-0.001 -0.29277,0.12649 -0.60851,0.19173 -0.92743,0.19157 -0.71113,-0.001 -1.34637,-0.31995 -1.77356,-0.8211 -0.0958,-0.0966 -0.14654,-0.12531 -0.23192,-0.0977 -0.0476,0.0329 -0.0576,0.12578 -0.0174,0.17693 0.47147,0.59877 1.20221,0.98413 2.02224,0.98582 0.32992,3.2e-4 0.65368,-0.0759 0.9595,-0.1986 0.0106,0.004 0.0194,0.01 0.0312,0.0141 0,0 7.1e-4,0 7.1e-4,0 0.41981,0.15991 0.86339,0.18826 1.21025,0.1806 0.17342,-0.004 0.32302,-0.0171 0.43175,-0.0281 0.0543,-0.006 0.0983,-0.0103 0.12889,-0.0132 0.0153,-0.001 0.0275,-0.002 0.0337,-0.002 0.006,-3.1e-4 0.0145,0.004 -0.0166,-0.004 0.11935,0.0317 0.20478,-0.11375 0.11895,-0.20253 -0.4228,-0.43158 -0.5591,-0.72869 -0.59354,-0.91564 -0.0172,-0.0935 -0.011,-0.16067 7.2e-4,-0.21268 0.0103,-0.0452 0.0243,-0.0747 0.0376,-0.11481 0.15636,-0.33559 0.23828,-0.70096 0.2408,-1.07121 0.003,-0.71689 -0.28811,-1.36728 -0.75952,-1.83698 -0.11104,-0.0989 -0.1993,-0.0239 -0.21112,-0.01 -0.0271,0.0366 -0.0146,0.1028 0.0143,0.15757 z"
       id="path924"
       inkscape:connector-curvature="0"
       sodipodi:nodetypes="ccccccccccccccsccccccccccccccccc" />
    <path
       style="color:#000000;font-style:normal;font-variant:normal;font-weight:normal;font-stretch:normal;font-size:medium;line-height:normal;font-family:sans-serif;font-variant-ligatures:normal;font-variant-position:normal;font-variant-caps:normal;font-variant-numeric:normal;font-variant-alternates:normal;font-feature-settings:normal;text-indent:0;text-align:start;text-decoration:none;text-decoration-line:none;text-decoration-style:solid;text-decoration-color:#000000;letter-spacing:normal;word-spacing:normal;text-transform:none;writing-mode:lr-tb;direction:ltr;text-orientation:mixed;dominant-baseline:auto;baseline-shift:baseline;text-anchor:start;white-space:normal;shape-padding:0;clip-rule:nonzero;display:inline;overflow:visible;visibility:visible;opacity:1;isolation:auto;mix-blend-mode:normal;color-interpolation:sRGB;color-interpolation-filters:linearRGB;solid-color:#000000;solid-opacity:1;vector-effect:none;fill:#000000;fill-opacity:1;fill-rule:nonzero;stroke:none;stroke-width:0.24377553;stroke-linecap:round;stroke-linejoin:round;stroke-miterlimit:4;stroke-dasharray:none;stroke-dashoffset:0;stroke-opacity:1;color-rendering:auto;image-rendering:auto;shape-rendering:auto;text-rendering:auto;enable-background:accumulate"
       d="m -436.26758,238.92188 c -1.42088,0.008 -2.56825,1.16897 -2.5625,2.58984 0.002,0.37045 0.084,0.73677 0.24024,1.07226 0.0132,0.0398 0.0268,0.0683 0.0371,0.11329 0.0118,0.052 0.0192,0.11941 0.002,0.21289 -0.0344,0.18695 -0.17096,0.48443 -0.59375,0.91601 a 0.12189995,0.12189995 0 0 0 0.10547,0.20508 c 0.001,-3e-4 -0.005,0.002 -0.004,0.002 0.006,2.9e-4 0.0179,4.9e-4 0.0332,0.002 0.0306,0.003 0.0765,0.008 0.13086,0.0137 0.10872,0.011 0.25626,0.0235 0.42969,0.0273 0.34687,0.008 0.79114,-0.0198 1.21094,-0.17969 a 0.12189995,0.12189995 0 0 0 0.002,0 c 0.0114,-0.004 0.0209,-0.009 0.0312,-0.0137 0.30561,0.12251 0.62932,0.19754 0.95899,0.19727 1.42082,-0.003 2.5742,-1.15727 2.57421,-2.57813 v -0.0195 a 0.12189995,0.12189995 0 0 0 0,-0.002 c -0.0116,-1.42078 -1.17491,-2.56725 -2.5957,-2.55859 z m 0.002,0.24414 c 1.28922,-0.008 2.33904,1.02718 2.3496,2.3164 v 0.0195 c -10e-6,1.28929 -1.04076,2.33113 -2.33007,2.33399 -0.31918,2.6e-4 -0.63473,-0.0648 -0.92774,-0.19141 a 0.12189995,0.12189995 0 0 0 -0.10156,0.002 c -0.0174,0.008 -0.0337,0.0148 -0.0508,0.0215 -0.37413,0.14208 -0.78913,0.1713 -1.11719,0.16406 -0.16276,-0.004 -0.30278,-0.0148 -0.4082,-0.0254 0.28554,-0.33672 0.50281,-0.64418 0.54101,-0.85156 0.0233,-0.1267 0.0141,-0.23147 -0.004,-0.31055 -0.018,-0.0791 -0.0453,-0.14106 -0.0469,-0.14648 a 0.12189995,0.12189995 0 0 0 -0.008,-0.0176 c -0.1416,-0.30399 -0.2149,-0.63374 -0.2168,-0.96875 -0.005,-1.2893 1.03105,-2.33809 2.32032,-2.3457 z"
       id="path926"
       inkscape:connector-curvature="0" />
  </g>
</svg>
