<?xml version="1.0" encoding="UTF-8" standalone="no"?>
<!-- Created with Inkscape (http://www.inkscape.org/) -->

<svg
   xmlns:dc="http://purl.org/dc/elements/1.1/"
   xmlns:cc="http://creativecommons.org/ns#"
   xmlns:rdf="http://www.w3.org/1999/02/22-rdf-syntax-ns#"
   xmlns:svg="http://www.w3.org/2000/svg"
   xmlns="http://www.w3.org/2000/svg"
   xmlns:sodipodi="http://sodipodi.sourceforge.net/DTD/sodipodi-0.dtd"
   xmlns:inkscape="http://www.inkscape.org/namespaces/inkscape"
   width="67.894737mm"
   height="68.603508mm"
   viewBox="0 0 67.894737 68.603508"
   version="1.1"
   id="svg1973"
   inkscape:version="0.92.3 (2405546, 2018-03-11)"
   sodipodi:docname="date.svg">
  <defs
     id="defs1967" />
  <sodipodi:namedview
     id="base"
     pagecolor="#ffffff"
     bordercolor="#666666"
     borderopacity="1.0"
     inkscape:pageopacity="0.0"
     inkscape:pageshadow="2"
     inkscape:zoom="0.35"
     inkscape:cx="-137.40923"
     inkscape:cy="72.501975"
     inkscape:document-units="mm"
     inkscape:current-layer="layer1"
     showgrid="false"
     inkscape:window-width="1366"
     inkscape:window-height="725"
     inkscape:window-x="0"
     inkscape:window-y="20"
     inkscape:window-maximized="1" />
  <metadata
     id="metadata1970">
    <rdf:RDF>
      <cc:Work
         rdf:about="">
        <dc:format>image/svg+xml</dc:format>
        <dc:type
           rdf:resource="http://purl.org/dc/dcmitype/StillImage" />
        <dc:title></dc:title>
      </cc:Work>
    </rdf:RDF>
  </metadata>
  <g
     inkscape:label="Layer 1"
     inkscape:groupmode="layer"
     id="layer1"
     transform="translate(-10.65381,-99.412643)">
    <path
       style="color:#007bff;font-style:normal;font-variant:normal;font-weight:normal;font-stretch:normal;font-size:medium;line-height:normal;font-family:sans-serif;font-variant-ligatures:normal;font-variant-position:normal;font-variant-caps:normal;font-variant-numeric:normal;font-variant-alternates:normal;font-feature-settings:normal;text-indent:0;text-align:start;text-decoration:none;text-decoration-line:none;text-decoration-style:solid;text-decoration-color:#007bff;letter-spacing:normal;word-spacing:normal;text-transform:none;writing-mode:lr-tb;direction:ltr;text-orientation:mixed;dominant-baseline:auto;baseline-shift:baseline;text-anchor:start;white-space:normal;shape-padding:0;clip-rule:nonzero;display:inline;overflow:visible;visibility:visible;opacity:1;isolation:auto;mix-blend-mode:normal;color-interpolation:sRGB;color-interpolation-filters:linearRGB;solid-color:#007bff;solid-opacity:1;vector-effect:none;fill:#000000;fill-opacity:1;fill-rule:nonzero;stroke:none;stroke-width:1.37193561;stroke-linecap:round;stroke-linejoin:round;stroke-miterlimit:4;stroke-dasharray:none;stroke-dashoffset:0;stroke-opacity:1;color-rendering:auto;image-rendering:auto;shape-rendering:auto;text-rendering:auto;enable-background:accumulate"
       d="m 44.323615,99.432709 c -0.146432,-0.0095 -4.357812,-0.318375 -8.579543,1.867841 -4.213974,2.17439 -8.039166,7.2293 -7.652045,16.49008 -1.923309,0.63364 -3.78091,1.74432 -4.17385,3.73163 -0.489074,2.47711 0.460245,5.4185 3.323435,7.07799 l -0.46377,-0.46563 c 2.022234,3.85099 4.578052,7.74233 7.49743,10.73392 2.919378,2.99086 6.31745,5.13372 10.125428,5.13372 3.81534,0.15971 7.394824,-1.89158 10.434542,-4.90039 3.058291,-3.02664 5.651226,-7.10589 7.265576,-11.1226 l -0.541031,0.62119 c 5.504918,-3.18998 3.469462,-11.74504 -1.932404,-11.74504 l 1.159519,1.24249 C 61.432364,108.56189 57.279058,103.60975 52.980316,101.3748 48.75451,99.176453 44.62405,99.423376 44.478053,99.431361 Z m 0,2.333781 a 1.1910184,1.1985556 0 0 0 0.07882,0 1.1910184,1.1985556 0 0 0 0.07882,0 c 0,0 3.783679,-0.19911 7.420138,1.71239 3.63647,1.89169 7.166828,5.64592 6.5699,14.46752 a 1.1910184,1.1985556 0 0 0 0,0.23852 1.1910184,1.1985556 0 0 0 0,0.23852 1.1910184,1.1985556 0 0 0 0.07882,0.083 1.1910184,1.1985556 0 0 0 0.154314,0.23853 1.1910184,1.1985556 0 0 0 0.07882,0.083 1.1910184,1.1985556 0 0 0 0.07882,0.083 1.1910184,1.1985556 0 0 0 0.07882,0.083 1.1910184,1.1985556 0 0 0 0.07882,0.083 1.1910184,1.1985556 0 0 0 0.07882,0.083 1.1910184,1.1985556 0 0 0 0.233441,0.083 1.1910184,1.1985556 0 0 0 0.23344,0 1.1910184,1.1985556 0 0 0 0.07882,0 c 2.7504,0 4.514936,5.14254 0.772916,7.31185 a 1.1910184,1.1985556 0 0 0 -0.233441,0.15971 1.1910184,1.1985556 0 0 0 -0.07882,0.083 1.1910184,1.1985556 0 0 0 -0.07882,0.083 1.1910184,1.1985556 0 0 0 -0.154314,0.23852 1.1910184,1.1985556 0 0 0 0,0.083 c -1.495203,3.7196 -3.874795,7.52165 -6.647316,10.26714 -2.772168,2.74394 -5.854042,4.35407 -8.734127,4.20038 a 1.1910184,1.1985556 0 0 0 -0.07882,0 c -2.907493,0 -5.7577,-1.70056 -8.424971,-4.43371 -2.667208,-2.73202 -5.080711,-6.46873 -7.033576,-10.18916 a 1.1910184,1.1985556 0 0 0 -0.07882,-0.083 1.1910184,1.1985556 0 0 0 -0.07882,-0.083 1.1910184,1.1985556 0 0 0 -0.07882,-0.083 1.1910184,1.1985556 0 0 0 -0.07882,-0.083 1.1910184,1.1985556 0 0 0 -0.07882,-0.083 1.1910184,1.1985556 0 0 0 -0.07882,-0.083 c -2.044406,-1.1867 -2.552925,-2.93507 -2.241477,-4.51129 0.312672,-1.57705 1.41675,-2.79963 2.860017,-2.79963 a 1.1910184,1.1985556 0 0 0 0.07882,0 1.1910184,1.1985556 0 0 0 0.233441,0 1.1910184,1.1985556 0 0 0 0.233441,-0.083 1.1910184,1.1985556 0 0 0 0.233441,-0.15971 1.1910184,1.1985556 0 0 0 0.07882,-0.083 1.1910184,1.1985556 0 0 0 0.07882,-0.083 1.1910184,1.1985556 0 0 0 0.154313,-0.23852 1.1910184,1.1985556 0 0 0 0,-0.083 1.1910184,1.1985556 0 0 0 0.07882,-0.23853 1.1910184,1.1985556 0 0 0 0,-0.23852 1.1910184,1.1985556 0 0 0 0,-0.083 c -0.528275,-8.90601 2.945108,-12.67539 6.5699,-14.54509 3.624585,-1.87178 7.497472,-1.63284 7.497472,-1.63284 z"
       id="path1011"
       inkscape:connector-curvature="0" />
    <path
       style="color:#007bff;font-style:normal;font-variant:normal;font-weight:normal;font-stretch:normal;font-size:medium;line-height:normal;font-family:sans-serif;font-variant-ligatures:normal;font-variant-position:normal;font-variant-caps:normal;font-variant-numeric:normal;font-variant-alternates:normal;font-feature-settings:normal;text-indent:0;text-align:start;text-decoration:none;text-decoration-line:none;text-decoration-style:solid;text-decoration-color:#007bff;letter-spacing:normal;word-spacing:normal;text-transform:none;writing-mode:lr-tb;direction:ltr;text-orientation:mixed;dominant-baseline:auto;baseline-shift:baseline;text-anchor:start;white-space:normal;shape-padding:0;clip-rule:nonzero;display:inline;overflow:visible;visibility:visible;opacity:1;isolation:auto;mix-blend-mode:normal;color-interpolation:sRGB;color-interpolation-filters:linearRGB;solid-color:#007bff;solid-opacity:1;vector-effect:none;fill:#000000;fill-opacity:1;fill-rule:nonzero;stroke:none;stroke-width:1.37193561;stroke-linecap:round;stroke-linejoin:round;stroke-miterlimit:4;stroke-dasharray:none;stroke-dashoffset:0;stroke-opacity:1;color-rendering:auto;image-rendering:auto;shape-rendering:auto;text-rendering:auto;enable-background:accumulate"
       d="m 34.976818,138.08566 c -0.0069,0.007 -0.01348,0.0104 -0.02074,0.0207 -0.02074,0.0207 -0.04148,0.0415 -0.06119,0.0622 -0.084,0.0207 -0.166862,0.0415 -0.245367,0.083 -0.02178,0.0311 -0.04252,0.0519 -0.06119,0.083 -0.02904,0.0311 -0.056,0.0519 -0.08193,0.083 -0.02904,0.0311 -0.056,0.0519 -0.08193,0.083 -0.028,0.0207 -0.05496,0.0415 -0.08193,0.0622 -0.02904,0.0311 -0.056,0.0519 -0.08193,0.083 -1.262011,2.20229 -4.937775,4.12333 -8.343801,5.22727 -3.40614,1.10311 -6.421445,1.54345 -6.421445,1.54345 -0.02696,-9.4e-4 -0.05496,-9.4e-4 -0.08193,0 -0.02696,-9.4e-4 -0.05393,-9.4e-4 -0.08193,0 -4.848225,1.38197 -7.022045,5.97508 -7.955248,9.96069 -0.93314,3.9856 -0.695344,7.61456 -0.695344,7.61456 -0.0084,0.083 -0.0084,0.1649 0,0.24682 0.01763,0.083 0.04563,0.16801 0.08193,0.24682 0.02593,0.0207 0.05289,0.0415 0.08193,0.0622 0.03733,0.083 0.08608,0.17112 0.143114,0.24682 0.02593,0.0311 0.05289,0.0519 0.08193,0.083 0.02593,0.0311 0.05289,0.0519 0.08193,0.083 0.02593,0.0311 0.05393,0.0519 0.08193,0.083 0.07259,0.0311 0.147469,0.0622 0.22504,0.083 4.667052,1.53723 12.714753,2.4238 19.714273,3.02519 6.999551,0.60149 12.904254,0.86387 12.904254,0.86387 0.02696,9.3e-4 0.05496,9.3e-4 0.08193,0 0,0 3.667727,-0.0415 10.061639,-0.53512 1.717837,-0.0415 2.004147,-1.09233 2.004147,-1.09233 0,0 0.36805,-1.23316 -2.004147,-1.23316 -6.393238,0.51645 -9.975418,0.39097 -10.041188,0.39097 0,0 -5.821593,-0.18356 -12.761109,-0.7612 -6.603107,-0.5652 -13.944097,-1.5366 -18.241844,-2.79901 -0.0197,-0.7249 -0.199218,-2.95519 0.531697,-6.07112 0.842191,-3.59608 2.596212,-7.12165 6.278312,-8.17022 0.130565,-0.0207 3.162629,-0.47911 6.707755,-1.62578 3.249825,-1.05137 6.586597,-2.93736 8.671002,-5.61835 0.594024,0.43764 3.832223,2.98153 8.875508,3.51925 2.311136,0.11926 4.710204,-0.72387 6.585062,-1.56409 1.521233,-0.68134 2.221918,-1.15652 2.617657,-1.3995 1.132919,1.12406 3.108475,2.32559 3.108475,2.32559 0.818028,0.70001 1.539599,0.37956 1.822891,0.14622 0.365354,-0.30074 0.488037,-1.19603 -0.248167,-1.73115 0,0 -2.556679,-1.42844 -3.742446,-2.81944 -0.02593,-0.0311 -0.05289,-0.0519 -0.08193,-0.083 -0.02593,-0.0311 -0.05289,-0.0519 -0.08193,-0.083 -0.06845,-0.0622 -0.14384,-0.11823 -0.224937,-0.1649 -0.02696,-9.3e-4 -0.05496,-9.3e-4 -0.08193,0 -0.07882,-0.0415 -0.160847,-0.0622 -0.245367,-0.083 -0.07467,-0.007 -0.150166,-0.007 -0.224937,0 -0.08193,-0.008 -0.163855,-0.008 -0.245367,0 -0.07778,0.0207 -0.152862,0.0519 -0.224937,0.083 -0.05704,0.0207 -0.111276,0.0519 -0.163647,0.083 0,0 -1.214027,0.79957 -2.924429,1.56408 -1.710391,0.76431 -3.897724,1.40469 -5.480724,1.31716 -4.530793,-0.53408 -8.063786,-3.08627 -8.200635,-3.18977 -0.0015,-0.001 -0.07778,-0.083 -0.08193,-0.083 -0.02696,-9.3e-4 -0.05496,-9.3e-4 -0.08193,0 -0.04563,-0.0311 -0.09333,-0.0622 -0.143113,-0.083 -0.02593,-0.0311 -0.05289,-0.0519 -0.08193,-0.083 -0.07985,-0.0311 -0.161677,-0.0519 -0.245367,-0.0622 -0.07467,-0.007 -0.150165,-0.007 -0.224937,0 -0.08193,-0.009 -0.163854,-0.009 -0.245367,0 -0.04044,-0.009 -0.08193,-0.0207 -0.122683,-0.0207 z"
       id="path1018"
       inkscape:connector-curvature="0"
       sodipodi:nodetypes="cccccccccccccccccccccccsccccccccccccccccscccccccccccsccccccccccc" />
    <path
       style="color:#007bff;font-style:normal;font-variant:normal;font-weight:normal;font-stretch:normal;font-size:medium;line-height:normal;font-family:sans-serif;font-variant-ligatures:normal;font-variant-position:normal;font-variant-caps:normal;font-variant-numeric:normal;font-variant-alternates:normal;font-feature-settings:normal;text-indent:0;text-align:start;text-decoration:none;text-decoration-line:none;text-decoration-style:solid;text-decoration-color:#007bff;letter-spacing:normal;word-spacing:normal;text-transform:none;writing-mode:lr-tb;direction:ltr;text-orientation:mixed;dominant-baseline:auto;baseline-shift:baseline;text-anchor:start;white-space:normal;shape-padding:0;clip-rule:nonzero;display:inline;overflow:visible;visibility:visible;opacity:1;isolation:auto;mix-blend-mode:normal;color-interpolation:sRGB;color-interpolation-filters:linearRGB;solid-color:#007bff;solid-opacity:1;vector-effect:none;fill:#000000;fill-opacity:1;fill-rule:nonzero;stroke:none;stroke-width:1.37193561;stroke-linecap:round;stroke-linejoin:round;stroke-miterlimit:4;stroke-dasharray:none;stroke-dashoffset:0;stroke-opacity:1;color-rendering:auto;image-rendering:auto;shape-rendering:auto;text-rendering:auto;enable-background:accumulate"
       d="m 66.444641,145.47394 c -0.434526,0 -0.776442,0.35882 -0.776442,0.78091 v 1.45757 h -2.770188 c -1.507378,0 -2.7876,1.23462 -2.7876,2.75193 v 2.21826 1.81194 a 0.93622131,0.942146 0 0 0 0,0.083 v 8.86017 c 0,1.51731 1.280627,2.75193 2.7876,2.75193 h 12.880308 c 1.506984,0 2.73497,-1.23462 2.73497,-2.75193 v -9.80119 c 0.01659,-0.31838 0.03526,-0.41379 0.03526,-0.93957 v -2.21816 c 0,-1.51337 -1.227592,-2.75192 -2.73497,-2.75192 h -0.03526 -2.805406 v -1.45758 c 0,-0.43453 -0.360168,-0.7809 -0.793864,-0.7809 h -0.245367 c -0.434525,0 -0.776442,0.35882 -0.776442,0.7809 v 1.45758 h -3.687524 v -1.45758 c 0,-0.43453 -0.340361,-0.7809 -0.776442,-0.7809 z m -3.54664,4.11939 h 2.770187 v 1.4218 c 0,0.43349 0.340361,0.7809 0.776442,0.7809 h 0.245367 c 0.434526,0 0.776442,-0.35882 0.776442,-0.7809 v -1.4218 h 3.687514 v 1.4218 c 0,0.43349 0.340361,0.7809 0.776442,0.7809 h 0.245366 c 0.434526,0 0.793865,-0.35882 0.793865,-0.7809 v -1.4218 h 2.805396 c 0.502245,0 0.864695,0.35882 0.864695,0.86801 v 2.21826 c 0,0.48638 -0.05496,0.55379 -0.07156,0.86801 H 61.976361 v -3.09042 c 0,-0.23852 0.09541,-0.46563 0.265175,-0.62119 0.17018,-0.15971 0.40165,-0.23852 0.652928,-0.23852 z m -0.917378,5.85945 h 14.662371 v 7.97246 c 0,0.50608 -0.36411,0.86801 -0.864695,0.86801 H 62.89799 c -0.502141,0 -0.917273,-0.35882 -0.917273,-0.86801 z"
       id="rect1503"
       inkscape:connector-curvature="0" />
  </g>
</svg>
