<?xml version="1.0" encoding="UTF-8" standalone="no"?>
<!-- Created with Inkscape (http://www.inkscape.org/) -->

<svg
   xmlns:dc="http://purl.org/dc/elements/1.1/"
   xmlns:cc="http://creativecommons.org/ns#"
   xmlns:rdf="http://www.w3.org/1999/02/22-rdf-syntax-ns#"
   xmlns:svg="http://www.w3.org/2000/svg"
   xmlns="http://www.w3.org/2000/svg"
   xmlns:sodipodi="http://sodipodi.sourceforge.net/DTD/sodipodi-0.dtd"
   xmlns:inkscape="http://www.inkscape.org/namespaces/inkscape"
   width="27.491505"
   height="25.000002"
   viewBox="0 0 7.273794 6.6145836"
   version="1.1"
   id="svg8"
   sodipodi:docname="male-female.svg"
   inkscape:version="0.92.3 (2405546, 2018-03-11)">
  <defs
     id="defs2">
    <clipPath
       clipPathUnits="userSpaceOnUse"
       id="clipPath831">
      <rect
         style="opacity:0.58999999;vector-effect:none;fill:#ffffff;fill-opacity:1;stroke:none;stroke-width:0.14999999;stroke-linecap:round;stroke-linejoin:round;stroke-miterlimit:4;stroke-dasharray:none;stroke-dashoffset:0;stroke-opacity:1"
         id="rect833"
         width="0.44633815"
         height="3.0153754"
         x="51.544052"
         y="233.57204" />
    </clipPath>
    <clipPath
       id="clipPath831-2"
       clipPathUnits="userSpaceOnUse">
      <rect
         y="233.57204"
         x="51.544052"
         height="3.0153754"
         width="0.44633815"
         id="rect833-7"
         style="opacity:0.58999999;vector-effect:none;fill:#ffffff;fill-opacity:1;stroke:none;stroke-width:0.14999999;stroke-linecap:round;stroke-linejoin:round;stroke-miterlimit:4;stroke-dasharray:none;stroke-dashoffset:0;stroke-opacity:1" />
    </clipPath>
  </defs>
  <sodipodi:namedview
     id="base"
     pagecolor="#ffffff"
     bordercolor="#666666"
     borderopacity="1.0"
     inkscape:pageopacity="0.0"
     inkscape:pageshadow="2"
     inkscape:zoom="5.6568543"
     inkscape:cx="-27.280535"
     inkscape:cy="10.569849"
     inkscape:document-units="px"
     inkscape:current-layer="layer1"
     showgrid="false"
     units="px"
     inkscape:window-width="1366"
     inkscape:window-height="725"
     inkscape:window-x="0"
     inkscape:window-y="20"
     inkscape:window-maximized="1"
     showguides="true"
     inkscape:guide-bbox="true" />
  <metadata
     id="metadata5">
    <rdf:RDF>
      <cc:Work
         rdf:about="">
        <dc:format>image/svg+xml</dc:format>
        <dc:type
           rdf:resource="http://purl.org/dc/dcmitype/StillImage" />
        <dc:title />
        <dc:title />
      </cc:Work>
    </rdf:RDF>
  </metadata>
  <g
     inkscape:label="Layer 1"
     inkscape:groupmode="layer"
     id="layer1"
     transform="translate(-48.426157,-228.98979)">
    <g
       id="g1608"
       transform="matrix(3.5088609,0,0,3.5088609,-121.49451,-591.09864)">
      <path
         sodipodi:nodetypes="scccccs"
         inkscape:connector-curvature="0"
         id="path1577"
         d="m 49.248849,233.95954 c -0.442586,0 -0.366178,0.44169 -0.366684,0.43606 -0.118604,0.0282 -0.06583,0.16824 0,0.21156 0.07596,0.1323 0.127787,0.35898 0.366684,0.35898 0.200079,0 0.293481,-0.22676 0.369439,-0.35898 0.06252,-0.0282 0.118604,-0.17949 0,-0.21156 -5.34e-4,0.005 0.07303,-0.43606 -0.369439,-0.43606 z"
         style="fill:none;stroke:#007bff;stroke-width:0.09803142;stroke-linecap:round;stroke-linejoin:round;stroke-miterlimit:4;stroke-dasharray:none;stroke-opacity:1" />
      <path
         inkscape:connector-curvature="0"
         id="path1592"
         d="m 49.042089,234.8895 c -0.01184,-0.0112 -0.06397,0.0872 -0.203457,0.13389 -0.13948,0.045 -0.348734,0.17442 -0.38362,0.47658 -0.01184,0 0.575851,0.0754 0.793397,0.0754 0.217579,0 0.805212,-0.0754 0.793403,-0.0754 -0.03489,-0.30216 -0.244138,-0.43156 -0.38362,-0.47658 -0.13948,-0.045 -0.191641,-0.14509 -0.203457,-0.13389 -0.110397,0.0809 -0.206326,0.0641 -0.206326,0.0641 0,0 -0.09594,0.0168 -0.206325,-0.0641 z"
         style="fill:none;stroke:#007bff;stroke-width:0.09803142;stroke-linecap:round;stroke-linejoin:round;stroke-miterlimit:4;stroke-dasharray:none;stroke-opacity:1" />
      <path
         id="path1597"
         transform="matrix(0.26458333,0,0,0.26458333,51.800221,232.92463)"
         d="m -7.9101562,3.1191406 c -0.2996531,0.030673 -0.7080246,0.1921044 -0.9550782,0.8359375 -0.013528,0.035197 -0.027123,0.08766 -0.041016,0.125 0.8224326,0.4140786 0.6585198,1.4957919 0.6601562,1.4804688 0.4482671,0.1212094 0.2362961,0.6922454 0,0.7988281 -0.2360351,0.4108661 -0.5243501,1.0488614 -1.0371093,1.2675781 0.1240486,-0.033879 0.2631207,-0.087698 0.4179687,-0.2011719 0.044659,-0.042331 0.2423628,0.3357807 0.7695313,0.5058594 0.4360833,0.1407527 1.0475853,0.5071603 1.3222656,1.2734375 0.011274,0.00101 0.9008545,0.077793 1.7304687,-0.9238281 0.123326,-0.4383496 -0.5035757,-0.9452445 -1.2285156,-1.1855469 -0.7249549,-0.2422677 -0.7695312,-0.59375 -0.7695312,-0.59375 0,0 -9.721e-4,-0.023315 0.4824218,-0.042969 0.4833979,-0.022677 0.7910157,-0.2636719 0.7910157,-0.2636719 0,0 0.045472,-0.1481816 -0.1757813,-0.4609375 -0.2198929,-0.3084095 -0.4835692,-0.679704 -0.5273437,-0.9667969 -0.04475,-0.2845984 -0.054017,-0.9247894 -0.3066407,-1.2109375 -0.2637353,-0.2691023 -0.615424,-0.4157299 -0.8789062,-0.4375 -0.065915,-0.00567 -0.154022,-0.010224 -0.2539058,3e-7 z"
         style="fill:none;stroke:#007bff;stroke-width:0.41933135;stroke-linecap:round;stroke-linejoin:round;stroke-miterlimit:4;stroke-dasharray:none;stroke-opacity:1"
         inkscape:connector-curvature="0" />
    </g>
  </g>
</svg>
