<?xml version="1.0" encoding="UTF-8" standalone="no"?>
<!-- Created with Inkscape (http://www.inkscape.org/) -->

<svg
   xmlns:dc="http://purl.org/dc/elements/1.1/"
   xmlns:cc="http://creativecommons.org/ns#"
   xmlns:rdf="http://www.w3.org/1999/02/22-rdf-syntax-ns#"
   xmlns:svg="http://www.w3.org/2000/svg"
   xmlns="http://www.w3.org/2000/svg"
   xmlns:sodipodi="http://sodipodi.sourceforge.net/DTD/sodipodi-0.dtd"
   xmlns:inkscape="http://www.inkscape.org/namespaces/inkscape"
   width="80.007904mm"
   height="72.919205mm"
   viewBox="0 0 80.007904 72.919205"
   version="1.1"
   id="svg1404"
   inkscape:version="0.92.3 (2405546, 2018-03-11)"
   sodipodi:docname="male-fe.svg">
  <defs
     id="defs1398" />
  <sodipodi:namedview
     id="base"
     pagecolor="#ffffff"
     bordercolor="#666666"
     borderopacity="1.0"
     inkscape:pageopacity="0.0"
     inkscape:pageshadow="2"
     inkscape:zoom="0.49497475"
     inkscape:cx="199.44653"
     inkscape:cy="306.52992"
     inkscape:document-units="mm"
     inkscape:current-layer="layer1"
     showgrid="false"
     inkscape:window-width="1366"
     inkscape:window-height="725"
     inkscape:window-x="0"
     inkscape:window-y="20"
     inkscape:window-maximized="1" />
  <metadata
     id="metadata1401">
    <rdf:RDF>
      <cc:Work
         rdf:about="">
        <dc:format>image/svg+xml</dc:format>
        <dc:type
           rdf:resource="http://purl.org/dc/dcmitype/StillImage" />
        <dc:title></dc:title>
      </cc:Work>
    </rdf:RDF>
  </metadata>
  <g
     inkscape:label="Layer 1"
     inkscape:groupmode="layer"
     id="layer1"
     transform="translate(168.51589,-97.254626)">
    <path
       style="color:#000000;font-style:normal;font-variant:normal;font-weight:normal;font-stretch:normal;font-size:medium;line-height:normal;font-family:sans-serif;font-variant-ligatures:normal;font-variant-position:normal;font-variant-caps:normal;font-variant-numeric:normal;font-variant-alternates:normal;font-feature-settings:normal;text-indent:0;text-align:start;text-decoration:none;text-decoration-line:none;text-decoration-style:solid;text-decoration-color:#000000;letter-spacing:normal;word-spacing:normal;text-transform:none;writing-mode:lr-tb;direction:ltr;text-orientation:mixed;dominant-baseline:auto;baseline-shift:baseline;text-anchor:start;white-space:normal;shape-padding:0;clip-rule:nonzero;display:inline;overflow:visible;visibility:visible;opacity:1;isolation:auto;mix-blend-mode:normal;color-interpolation:sRGB;color-interpolation-filters:linearRGB;solid-color:#000000;solid-opacity:1;vector-effect:none;fill:#000000;fill-opacity:1;fill-rule:nonzero;stroke:none;stroke-width:3.70081306;stroke-linecap:round;stroke-linejoin:round;stroke-miterlimit:4;stroke-dasharray:none;stroke-dashoffset:0;stroke-opacity:1;color-rendering:auto;image-rendering:auto;shape-rendering:auto;text-rendering:auto;enable-background:accumulate"
       d="m -136.70898,105.47266 c -4.48483,0 -7.88475,1.14562 -10.32032,2.97265 -2.43557,1.82703 -3.84474,4.27166 -4.61718,6.60742 -0.77245,2.33576 -0.94282,4.58584 -0.93555,6.25782 0.002,0.55569 0.0387,0.92907 0.0684,1.33984 -0.76865,0.42737 -1.44229,0.95263 -1.86133,1.64844 -0.67957,1.1284 -0.78809,2.40237 -0.61719,3.54101 0.29893,1.99155 1.39238,3.67637 2.85547,4.89258 1.29029,2.25996 2.52014,5.72248 4.69336,8.76367 2.18365,3.05578 5.63978,5.67774 10.73438,5.67774 4.47567,0 7.81378,-2.61082 10.18164,-5.60742 2.27212,-2.87544 3.84656,-6.1624 5.18164,-8.53321 1.67807,-1.06527 2.66122,-2.87584 2.97656,-4.91601 0.17841,-1.15429 0.0903,-2.43841 -0.54883,-3.60938 -0.40576,-0.74338 -1.09703,-1.32557 -1.89453,-1.80273 0.0291,-0.42465 0.0638,-0.82902 0.0625,-1.41602 -0.004,-1.67277 -0.18962,-3.92295 -0.97656,-6.25586 -1.57389,-4.6658 -6.0157,-9.56054 -14.98242,-9.56054 z m 0,3.70117 c 7.73704,0 10.25804,3.43067 11.47656,7.04297 0.60926,1.80614 0.77808,3.68395 0.78125,5.08008 0.002,0.69806 -0.0377,1.27642 -0.0742,1.6621 -0.0182,0.19284 -0.0351,0.33736 -0.0469,0.42383 -0.004,0.0316 -0.006,0.045 -0.008,0.0586 4.1e-4,-0.002 0.006,-0.0209 0.008,-0.0293 -0.0126,0.0581 -0.0224,0.11675 -0.0293,0.17578 -0.003,0.0257 -0.0117,0.24196 -0.0117,0.24219 0,2e-4 2.67232,0.36859 3.25781,0.44922 l -1.89062,1.29297 c 0.73,0.19739 0.93068,0.43529 1.08007,0.70898 0.1494,0.27369 0.22492,0.71156 0.13868,1.26953 -0.17249,1.11594 -1.25751,2.42754 -1.4961,2.53516 -0.35448,0.15961 -0.64969,0.42681 -0.84375,0.76367 -1.49817,2.60786 -3.06215,5.89232 -5.0625,8.42383 -2.00035,2.53151 -4.20173,4.20117 -7.27929,4.20117 -3.92409,0 -5.95648,-1.65733 -7.72266,-4.12891 -1.76619,-2.47158 -2.94509,-5.75873 -4.51563,-8.49414 -0.14429,-0.25151 -0.34567,-0.4656 -0.58789,-0.625 -0.66739,-0.43918 -1.64257,-1.8945 -1.79882,-2.93554 -0.0781,-0.52053 4e-4,-0.87062 0.1289,-1.08399 0.1285,-0.21337 0.39289,-0.90954 1.43087,-0.87166 0,0 0.97405,0.0385 1.07109,-1.47404 1e-5,-3.2e-4 -0.003,-0.21031 -0.006,-0.24219 -0.006,-0.0596 -0.0141,-0.11893 -0.0254,-0.17773 1e-5,2e-5 -1e-5,-0.004 0,-0.004 -0.001,-0.005 -0.003,-0.0104 -0.004,-0.0156 -0.009,-0.0387 -0.0183,-0.0771 -0.0293,-0.11524 0.001,0.004 0.007,0.0175 0.008,0.0195 0.01,0.0384 0.0128,0.0533 0.0156,0.0664 0.007,0.0314 0.005,0.0256 0.006,0.0293 -0.002,-0.0108 -0.003,-0.0208 -0.008,-0.0508 -0.012,-0.0832 -0.0312,-0.22831 -0.0508,-0.41992 -0.0391,-0.38321 -0.081,-0.95891 -0.084,-1.65625 -0.006,-1.39468 0.15071,-3.27381 0.74805,-5.08008 0.59734,-1.80626 1.60085,-3.51582 3.32422,-4.80859 1.72336,-1.29277 4.23033,-2.23242 8.09961,-2.23242 z m -12.19336,13.77929 c 0,0 0.002,1e-5 0.002,0 0,0 0.005,0.0145 0.006,0.0156 -0.003,-0.005 -0.005,-0.0104 -0.008,-0.0156 z m 24.37109,0.29102 h 0.002 c -0.004,0.0123 -0.008,0.0247 -0.0117,0.0371 0.003,-0.0106 0.01,-0.0372 0.01,-0.0371 z"
       id="path1577"
       inkscape:connector-curvature="0"
       sodipodi:nodetypes="ssccccccsssccccccssccccccccsccccccssccccsccccccccccccsccccccccccccc" />
    <path
       style="color:#000000;font-style:normal;font-variant:normal;font-weight:normal;font-stretch:normal;font-size:medium;line-height:normal;font-family:sans-serif;font-variant-ligatures:normal;font-variant-position:normal;font-variant-caps:normal;font-variant-numeric:normal;font-variant-alternates:normal;font-feature-settings:normal;text-indent:0;text-align:start;text-decoration:none;text-decoration-line:none;text-decoration-style:solid;text-decoration-color:#000000;letter-spacing:normal;word-spacing:normal;text-transform:none;writing-mode:lr-tb;direction:ltr;text-orientation:mixed;dominant-baseline:auto;baseline-shift:baseline;text-anchor:start;white-space:normal;shape-padding:0;clip-rule:nonzero;display:inline;overflow:visible;visibility:visible;opacity:1;isolation:auto;mix-blend-mode:normal;color-interpolation:sRGB;color-interpolation-filters:linearRGB;solid-color:#000000;solid-opacity:1;vector-effect:none;fill:#000000;fill-opacity:1;fill-rule:nonzero;stroke:none;stroke-width:3.70081306;stroke-linecap:round;stroke-linejoin:round;stroke-miterlimit:4;stroke-dasharray:none;stroke-dashoffset:0;stroke-opacity:1;color-rendering:auto;image-rendering:auto;shape-rendering:auto;text-rendering:auto;enable-background:accumulate"
       d="m -144.81836,140.55859 c -0.46098,0.0505 -0.70969,0.20086 -0.89453,0.3125 -0.36969,0.2233 -0.53362,0.39899 -0.73047,0.58789 -0.39369,0.37782 -0.80341,0.81414 -1.34961,1.31055 -1.0924,0.99283 -2.66257,2.18181 -4.99023,2.96094 l 0.0195,-0.006 c -5.73752,1.85108 -14.34518,7.35638 -15.75195,19.54101 l 0.97656,-0.87109 c -0.10441,0.77844 -0.33619,2.49979 -0.33594,2.5 3.1e-4,2.6e-4 0.50346,0.30398 0.58398,0.33203 0.3221,0.1122 0.26054,0.0707 0.30079,0.0781 0.0805,0.0149 0.13391,0.0234 0.21289,0.0352 0.15794,0.0235 0.38115,0.0542 0.67578,0.0937 0.58925,0.0791 1.45409,0.19024 2.53125,0.32422 2.15432,0.26796 5.15031,0.62542 8.41992,0.98242 6.53921,0.71401 14.10372,1.4336 18.42383,1.4336 4.32068,0 11.88681,-0.71959 18.42578,-1.4336 3.26948,-0.357 6.26367,-0.71446 8.41797,-0.98242 1.07714,-0.13398 1.94391,-0.24513 2.5332,-0.32422 0.29465,-0.0395 0.51784,-0.0702 0.67578,-0.0937 0.079,-0.0118 0.13261,-0.0203 0.21289,-0.0352 0.0401,-0.007 -0.0222,0.0325 0.29688,-0.0781 0.0798,-0.0277 0.57781,-0.32396 0.57812,-0.32422 2.5e-4,-2e-4 -0.22225,-1.72486 -0.32226,-2.5039 l 0.97265,0.86718 c -1.40694,-12.18461 -10.01479,-17.68924 -15.75195,-19.54101 -2.31541,-0.74701 -3.87805,-1.93115 -4.9668,-2.92773 -0.54437,-0.4983 -0.95281,-0.93726 -1.34375,-1.31836 -0.19547,-0.19056 -0.35695,-0.3672 -0.72265,-0.59375 -0.18286,-0.11328 -0.42895,-0.26619 -0.89258,-0.32227 -0.46363,-0.0561 -1.19481,0.1454 -1.5957,0.52539 l 0.17773,-0.15039 c -1.82844,1.3399 -3.47254,1.83551 -4.64844,2.01953 -1.1759,0.18402 -1.72656,0.0703 -1.72656,0.0703 a 1.8505916,1.8505916 0 0 0 -0.63867,0 c 0,0 -0.55062,0.11371 -1.72656,-0.0703 -1.17595,-0.18402 -2.82223,-0.67968 -4.6504,-2.01953 l -0.0254,0.0801 c -0.3271,-0.22925 -0.72466,-0.34245 -1.0957,-0.36719 l 0.0273,-0.0703 a 1.8505916,1.8505916 0 0 0 -0.20118,0.0117 c -0.0316,0.001 -0.0719,-0.0365 -0.10156,-0.0332 z m -0.96875,3.21485 a 1.8505916,1.8505916 0 0 0 0.004,0.004 c -0.001,-9.6e-4 -0.003,-9.9e-4 -0.004,-0.002 z m 1.4082,0.83789 c 1.87353,1.11939 3.66353,1.78926 5.03516,2.0039 1.49395,0.23379 2.38125,0.0851 2.61719,0.0527 0.23471,0.0323 1.12412,0.18122 2.61914,-0.0527 1.3697,-0.21434 3.15468,-0.88383 5.02539,-2 0.27373,0.2776 0.49836,0.5173 0.92969,0.91211 1.32372,1.21168 3.37797,2.76696 6.32812,3.71875 4.50521,1.45414 11.06304,5.38151 12.86328,14.66211 -0.44863,0.0578 -0.78919,0.10439 -1.3789,0.17774 -2.1365,0.26574 -5.11578,0.62 -8.36328,0.97461 -6.49501,0.70921 -14.13025,1.41211 -18.02344,1.41211 -3.89255,0 -11.52623,-0.7029 -18.02149,-1.41211 -3.24762,-0.35461 -6.22873,-0.70887 -8.36523,-0.97461 -0.58935,-0.0733 -0.92852,-0.11993 -1.37695,-0.17774 1.80016,-9.28066 8.35853,-13.20875 12.86328,-14.66211 a 1.8505916,1.8505916 0 0 0 0.0195,-0.006 c 2.93815,-0.98347 4.9849,-2.53294 6.30469,-3.73242 0.42888,-0.38979 0.65156,-0.62381 0.92382,-0.89648 z m 37.43946,22.70703 a 1.8505916,1.8505916 0 0 0 0.0605,0.006 c -0.017,-9.1e-4 -0.0193,-1e-5 -0.043,-0.002 -0.002,-1.9e-4 -0.0146,-0.004 -0.0176,-0.004 z m -59.58399,0.002 c -0.001,1.3e-4 -0.007,0.002 -0.008,0.002 -0.0812,0.007 -0.11754,0.006 -0.14648,0.006 a 1.8505916,1.8505916 0 0 0 0.15429,-0.008 z"
       id="path1592"
       inkscape:connector-curvature="0" />
    <path
       style="color:#000000;font-style:normal;font-variant:normal;font-weight:normal;font-stretch:normal;font-size:medium;line-height:normal;font-family:sans-serif;font-variant-ligatures:normal;font-variant-position:normal;font-variant-caps:normal;font-variant-numeric:normal;font-variant-alternates:normal;font-feature-settings:normal;text-indent:0;text-align:start;text-decoration:none;text-decoration-line:none;text-decoration-style:solid;text-decoration-color:#000000;letter-spacing:normal;word-spacing:normal;text-transform:none;writing-mode:lr-tb;direction:ltr;text-orientation:mixed;dominant-baseline:auto;baseline-shift:baseline;text-anchor:start;white-space:normal;shape-padding:0;clip-rule:nonzero;display:inline;overflow:visible;visibility:visible;opacity:1;isolation:auto;mix-blend-mode:normal;color-interpolation:sRGB;color-interpolation-filters:linearRGB;solid-color:#000000;solid-opacity:1;vector-effect:none;fill:#000000;fill-opacity:1;fill-rule:nonzero;stroke:none;stroke-width:4.18843412;stroke-linecap:round;stroke-linejoin:round;stroke-miterlimit:4;stroke-dasharray:none;stroke-dashoffset:0;stroke-opacity:1;color-rendering:auto;image-rendering:auto;shape-rendering:auto;text-rendering:auto;enable-background:accumulate"
       d="m -116.69336,97.322266 c -0.7214,-0.06188 -1.74058,-0.117014 -2.92187,0.0039 -3.54178,0.362543 -8.57901,2.641409 -11.28125,9.683594 -0.21603,0.56256 -0.34521,1.07725 -0.41602,1.26757 -0.37281,1.00029 0.0663,2.12093 1.01953,2.60157 3.40323,1.71345 4.71189,4.71063 5.25781,7.52929 0.27296,1.40934 0.32314,2.73438 0.30274,3.67774 -0.0102,0.47168 -0.0376,0.84822 -0.0605,1.09179 -0.0114,0.12179 -0.0212,0.21135 -0.0273,0.25977 7.6e-4,-0.004 8.6e-4,3.7e-4 0.002,-0.006 0.002,-0.0106 0.003,-0.0221 0.01,-0.0566 2.3e-4,-10e-4 0.005,-0.0155 0.006,-0.0176 -0.0161,0.0709 -0.0285,0.14264 -0.0371,0.21485 -0.002,0.0175 -0.008,0.11301 -0.008,0.11328 0.003,2.2256 1.54493,2.13086 1.54493,2.13086 0.64583,-0.10031 0.81288,0.37606 0.92968,0.58984 0.11681,0.21378 0.19139,0.59591 0.11133,1.11328 -0.16011,1.03475 -1.23923,2.29327 -1.35547,2.3457 -0.40139,0.18087 -0.73557,0.48362 -0.95508,0.86524 -2.45713,4.27712 -5.33489,10.06016 -9.36523,11.7793 -2.37961,1.03101 -1.1325,4.61445 1.37305,3.94531 0.0818,-0.0224 0.18383,-0.0734 0.26757,-0.0977 l 0.002,0.004 c 0.004,-0.002 0.007,-0.006 0.0117,-0.008 0.95625,-0.27837 2.04156,-0.76349 3.18359,-1.41602 0.25401,0.2554 0.41596,0.43178 0.78125,0.76562 1.34034,1.22496 3.42837,2.80438 6.41992,3.76954 v -0.002 c 3.88933,1.25535 9.39689,4.5095 11.87891,11.4336 0.27558,0.76818 0.97227,1.30633 1.78515,1.3789 0.48122,0.0432 10.294842,0.63487 19.083989,-9.97656 0.187099,-0.22541 0.324831,-0.48756 0.404297,-0.76953 0.923454,-3.28233 -0.951034,-6.39331 -3.5625,-8.77539 -2.610128,-2.38086 -6.196021,-4.33735 -10.060546,-5.61914 l -0.006,-0.002 c -2.20552,-0.73778 -3.45836,-1.50455 -4.38477,-2.21484 0.43196,-0.0233 0.38461,-0.0417 0.94336,-0.0644 0.005,2e-5 0.009,2e-5 0.0137,0 5.48056,-0.2571 9.093746,-3.07813 9.093746,-3.07813 0.336952,-0.26369 0.585057,-0.62426 0.710937,-1.0332 0,0 0.111125,-0.43588 0.126953,-0.80469 0.01583,-0.36881 -0.01413,-0.83325 -0.130859,-1.3789 -0.233466,-1.09132 -0.81082,-2.49966 -2.044922,-4.24414 l -0.0039,-0.006 c -2.194525,-3.07793 -4.613445,-6.86307 -4.902335,-8.75782 -6.6e-4,-0.003 -10e-4,-0.007 -0.002,-0.01 -0.18951,-1.20522 -0.33584,-3.60716 -0.75586,-6.06836 -0.42002,-2.4612 -1.03862,-5.08551 -2.80468,-7.08594 -0.024,-0.0273 -0.0488,-0.0541 -0.0742,-0.0801 -3.01954,-3.08097 -6.8551,-4.723782 -10.10352,-4.99218 z m -2.49414,4.169924 c 0.8109,-0.083 1.54755,-0.0473 2.14258,0.004 0.003,1e-5 0.005,1e-5 0.008,0 2.00175,0.1654 5.15784,1.44852 7.4043,3.71485 0.74729,0.87319 1.42824,2.83739 1.79297,4.97461 0.36834,2.15838 0.48931,4.36904 0.74609,6.00586 3.1e-4,0.002 0.002,0.004 0.002,0.006 9e-5,5.2e-4 -8e-5,0.001 0,0.002 0.58777,3.83443 3.42903,7.46164 5.625,10.54101 0.83689,1.183 1.03591,1.83629 1.17383,2.31836 -0.96906,0.58907 -2.69466,1.47325 -5.69336,1.61719 -10e-4,5e-5 -8.8e-4,-4e-5 -0.002,0 -0.004,2.1e-4 -0.007,0.002 -0.0117,0.002 -2.43285,0.0993 -3.67521,0.20404 -4.40625,0.30469 -0.36666,0.0505 -0.59377,0.0857 -0.9043,0.18946 -0.15526,0.0519 -0.33497,0.1033 -0.64257,0.33007 -0.15381,0.11339 -0.34987,0.2792 -0.53711,0.57617 -0.0936,0.14849 -0.24206,0.54057 -0.24219,0.54102 -1.3e-4,4.5e-4 -0.0801,0.66992 -0.0801,0.66992 0.003,0.0575 0.008,0.11483 0.0156,0.17188 0,0 0.0938,0.57896 0.33008,1.13867 0.23625,0.5597 0.63603,1.26748 1.28711,2.02344 1.30217,1.5119 3.58535,3.18985 7.48242,4.49218 0.001,6.7e-4 0.003,0.001 0.004,0.002 3.37417,1.11846 6.538869,2.89418 8.560548,4.73828 1.871202,1.70684 2.461096,3.16833 2.308593,4.25195 -5.940337,6.86762 -11.743421,7.88826 -13.974611,7.99414 -3.2326,-7.35045 -9.29472,-11.15705 -13.8125,-12.61523 -2.27399,-0.73365 -3.80592,-1.8926 -4.88086,-2.875 -0.39549,-0.36145 -0.68433,-0.66258 -0.98633,-0.9668 2.33911,-2.84956 3.97233,-6.0482 5.30664,-8.42773 1.7414,-1.11606 2.72471,-2.96199 3.04883,-5.05664 0.1846,-1.19297 0.0975,-2.53228 -0.57422,-3.76172 -0.40741,-0.74567 -1.08735,-1.33854 -1.86914,-1.83008 0.006,-0.14643 0.0179,-0.22809 0.0215,-0.39258 0.0253,-1.16869 -0.0323,-2.77478 -0.37891,-4.56445 -0.60562,-3.12692 -2.31626,-6.8568 -5.91601,-9.38477 2.22249,-5.51158 5.25727,-6.48921 7.65234,-6.73437 z m -5.43164,21.34765 h 0.002 c -0.002,0.004 -0.004,0.008 -0.006,0.0117 1.7e-4,-4.6e-4 0.004,-0.0117 0.004,-0.0117 z"
       id="path1597"
       inkscape:connector-curvature="0"
       sodipodi:nodetypes="ccccccscccccccccccccccccccccccccscccccccccccccsccccccccsccccccccccccsccccccscccccccccccccccccc" />
  </g>
</svg>
