<?xml version="1.0" encoding="UTF-8" standalone="no"?>
<!-- Created with Inkscape (http://www.inkscape.org/) -->

<svg
   xmlns:dc="http://purl.org/dc/elements/1.1/"
   xmlns:cc="http://creativecommons.org/ns#"
   xmlns:rdf="http://www.w3.org/1999/02/22-rdf-syntax-ns#"
   xmlns:svg="http://www.w3.org/2000/svg"
   xmlns="http://www.w3.org/2000/svg"
   xmlns:sodipodi="http://sodipodi.sourceforge.net/DTD/sodipodi-0.dtd"
   xmlns:inkscape="http://www.inkscape.org/namespaces/inkscape"
   width="24.744139"
   height="25.002384"
   viewBox="0 0 6.5468867 6.6152141"
   version="1.1"
   id="svg8"
   sodipodi:docname="man-date.svg"
   inkscape:version="0.92.3 (2405546, 2018-03-11)">
  <defs
     id="defs2">
    <clipPath
       clipPathUnits="userSpaceOnUse"
       id="clipPath831">
      <rect
         style="opacity:0.58999999;vector-effect:none;fill:#ffffff;fill-opacity:1;stroke:none;stroke-width:0.14999999;stroke-linecap:round;stroke-linejoin:round;stroke-miterlimit:4;stroke-dasharray:none;stroke-dashoffset:0;stroke-opacity:1"
         id="rect833"
         width="0.44633815"
         height="3.0153754"
         x="51.544052"
         y="233.57204" />
    </clipPath>
  </defs>
  <sodipodi:namedview
     id="base"
     pagecolor="#ffffff"
     bordercolor="#666666"
     borderopacity="1.0"
     inkscape:pageopacity="0.0"
     inkscape:pageshadow="2"
     inkscape:zoom="5.6568545"
     inkscape:cx="10.52657"
     inkscape:cy="10.136847"
     inkscape:document-units="px"
     inkscape:current-layer="layer1"
     showgrid="false"
     units="px"
     inkscape:window-width="1364"
     inkscape:window-height="723"
     inkscape:window-x="0"
     inkscape:window-y="20"
     inkscape:window-maximized="0"
     showguides="true"
     inkscape:guide-bbox="true" />
  <metadata
     id="metadata5">
    <rdf:RDF>
      <cc:Work
         rdf:about="">
        <dc:format>image/svg+xml</dc:format>
        <dc:type
           rdf:resource="http://purl.org/dc/dcmitype/StillImage" />
        <dc:title />
        <dc:title />
      </cc:Work>
    </rdf:RDF>
  </metadata>
  <g
     inkscape:label="Layer 1"
     inkscape:groupmode="layer"
     id="layer1"
     transform="translate(-48.797557,-229.67574)">
    <path
       style="color:#007bff;font-style:normal;font-variant:normal;font-weight:normal;font-stretch:normal;font-size:medium;line-height:normal;font-family:sans-serif;font-variant-ligatures:normal;font-variant-position:normal;font-variant-caps:normal;font-variant-numeric:normal;font-variant-alternates:normal;font-feature-settings:normal;text-indent:0;text-align:start;text-decoration:none;text-decoration-line:none;text-decoration-style:solid;text-decoration-color:#007bff;letter-spacing:normal;word-spacing:normal;text-transform:none;writing-mode:lr-tb;direction:ltr;text-orientation:mixed;dominant-baseline:auto;baseline-shift:baseline;text-anchor:start;white-space:normal;shape-padding:0;clip-rule:nonzero;display:inline;overflow:visible;visibility:visible;opacity:1;isolation:auto;mix-blend-mode:normal;color-interpolation:sRGB;color-interpolation-filters:linearRGB;solid-color:#007bff;solid-opacity:1;vector-effect:none;fill:#000000;fill-opacity:1;fill-rule:nonzero;stroke:none;stroke-width:0.13229167;stroke-linecap:round;stroke-linejoin:round;stroke-miterlimit:4;stroke-dasharray:none;stroke-dashoffset:0;stroke-opacity:1;color-rendering:auto;image-rendering:auto;shape-rendering:auto;text-rendering:auto;enable-background:accumulate"
       d="m 52.044234,229.67768 c -0.01412,-9.2e-4 -0.420211,-0.0307 -0.8273,0.18011 -0.406341,0.20967 -0.775193,0.6971 -0.737864,1.59009 -0.185459,0.0611 -0.364582,0.1682 -0.402472,0.35983 -0.04716,0.23886 0.04438,0.52249 0.320469,0.68251 l -0.04472,-0.0449 c 0.194998,0.37134 0.441448,0.74657 0.722955,1.03504 0.281507,0.2884 0.609173,0.49503 0.976365,0.49503 0.367902,0.0154 0.713061,-0.1824 1.006172,-0.47253 0.294902,-0.29185 0.544931,-0.6852 0.700598,-1.07252 l -0.05217,0.0599 c 0.530823,-0.3076 0.33455,-1.13254 -0.186336,-1.13254 l 0.111809,0.11981 c 0.06224,-0.91953 -0.338251,-1.39705 -0.752766,-1.61256 -0.407482,-0.21198 -0.80577,-0.18817 -0.819848,-0.1874 z m 0,0.22504 a 0.11484638,0.11557317 0 0 0 0.0076,0 0.11484638,0.11557317 0 0 0 0.0076,0 c 0,0 0.364849,-0.0192 0.715502,0.16512 0.350654,0.18241 0.691076,0.54442 0.633516,1.39506 a 0.11484638,0.11557317 0 0 0 0,0.023 0.11484638,0.11557317 0 0 0 0,0.023 0.11484638,0.11557317 0 0 0 0.0076,0.008 0.11484638,0.11557317 0 0 0 0.01488,0.023 0.11484638,0.11557317 0 0 0 0.0076,0.008 0.11484638,0.11557317 0 0 0 0.0076,0.008 0.11484638,0.11557317 0 0 0 0.0076,0.008 0.11484638,0.11557317 0 0 0 0.0076,0.008 0.11484638,0.11557317 0 0 0 0.0076,0.008 0.11484638,0.11557317 0 0 0 0.02251,0.008 0.11484638,0.11557317 0 0 0 0.02251,0 0.11484638,0.11557317 0 0 0 0.0076,0 c 0.265213,0 0.435362,0.49588 0.07453,0.70506 a 0.11484638,0.11557317 0 0 0 -0.02251,0.0154 0.11484638,0.11557317 0 0 0 -0.0076,0.008 0.11484638,0.11557317 0 0 0 -0.0076,0.008 0.11484638,0.11557317 0 0 0 -0.01488,0.023 0.11484638,0.11557317 0 0 0 0,0.008 c -0.144169,0.35867 -0.373626,0.72529 -0.640972,0.99003 -0.267312,0.26459 -0.564488,0.41985 -0.842206,0.40503 a 0.11484638,0.11557317 0 0 0 -0.0076,0 c -0.280362,0 -0.555199,-0.16398 -0.812395,-0.42753 -0.257199,-0.26344 -0.489926,-0.62376 -0.678235,-0.98251 a 0.11484638,0.11557317 0 0 0 -0.0076,-0.008 0.11484638,0.11557317 0 0 0 -0.0076,-0.008 0.11484638,0.11557317 0 0 0 -0.0076,-0.008 0.11484638,0.11557317 0 0 0 -0.0076,-0.008 0.11484638,0.11557317 0 0 0 -0.0076,-0.008 0.11484638,0.11557317 0 0 0 -0.0076,-0.008 c -0.197136,-0.11443 -0.246171,-0.28302 -0.216139,-0.43501 0.03015,-0.15207 0.136613,-0.26996 0.275783,-0.26996 a 0.11484638,0.11557317 0 0 0 0.0076,0 0.11484638,0.11557317 0 0 0 0.02251,0 0.11484638,0.11557317 0 0 0 0.02251,-0.008 0.11484638,0.11557317 0 0 0 0.02251,-0.0154 0.11484638,0.11557317 0 0 0 0.0076,-0.008 0.11484638,0.11557317 0 0 0 0.0076,-0.008 0.11484638,0.11557317 0 0 0 0.01488,-0.023 0.11484638,0.11557317 0 0 0 0,-0.008 0.11484638,0.11557317 0 0 0 0.0076,-0.023 0.11484638,0.11557317 0 0 0 0,-0.023 0.11484638,0.11557317 0 0 0 0,-0.008 c -0.05094,-0.85878 0.283988,-1.22225 0.633516,-1.40254 0.349508,-0.18049 0.722959,-0.15745 0.722959,-0.15745 z"
       id="path1011"
       inkscape:connector-curvature="0" />
    <path
       style="color:#007bff;font-style:normal;font-variant:normal;font-weight:normal;font-stretch:normal;font-size:medium;line-height:normal;font-family:sans-serif;font-variant-ligatures:normal;font-variant-position:normal;font-variant-caps:normal;font-variant-numeric:normal;font-variant-alternates:normal;font-feature-settings:normal;text-indent:0;text-align:start;text-decoration:none;text-decoration-line:none;text-decoration-style:solid;text-decoration-color:#007bff;letter-spacing:normal;word-spacing:normal;text-transform:none;writing-mode:lr-tb;direction:ltr;text-orientation:mixed;dominant-baseline:auto;baseline-shift:baseline;text-anchor:start;white-space:normal;shape-padding:0;clip-rule:nonzero;display:inline;overflow:visible;visibility:visible;opacity:1;isolation:auto;mix-blend-mode:normal;color-interpolation:sRGB;color-interpolation-filters:linearRGB;solid-color:#007bff;solid-opacity:1;vector-effect:none;fill:#000000;fill-opacity:1;fill-rule:nonzero;stroke:none;stroke-width:0.13229167;stroke-linecap:round;stroke-linejoin:round;stroke-miterlimit:4;stroke-dasharray:none;stroke-dashoffset:0;stroke-opacity:1;color-rendering:auto;image-rendering:auto;shape-rendering:auto;text-rendering:auto;enable-background:accumulate"
       d="m 51.14295,233.40487 c -6.65e-4,6.5e-4 -0.0013,0.001 -0.002,0.002 -0.002,0.002 -0.004,0.004 -0.0059,0.006 -0.0081,0.002 -0.01609,0.004 -0.02366,0.008 -0.0021,0.003 -0.0041,0.005 -0.0059,0.008 -0.0028,0.003 -0.0054,0.005 -0.0079,0.008 -0.0028,0.003 -0.0054,0.005 -0.0079,0.008 -0.0027,0.002 -0.0053,0.004 -0.0079,0.006 -0.0028,0.003 -0.0054,0.005 -0.0079,0.008 -0.121692,0.21236 -0.476135,0.3976 -0.804568,0.50405 -0.328444,0.10637 -0.619201,0.14883 -0.619201,0.14883 -0.0026,-9e-5 -0.0053,-9e-5 -0.0079,0 -0.0026,-9e-5 -0.0052,-9e-5 -0.0079,0 -0.4675,0.13326 -0.677115,0.57616 -0.767101,0.96048 -0.08998,0.38432 -0.06705,0.73425 -0.06705,0.73425 -8.14e-4,0.008 -8.14e-4,0.0159 0,0.0238 0.0017,0.008 0.0044,0.0162 0.0079,0.0238 0.0025,0.002 0.0051,0.004 0.0079,0.006 0.0036,0.008 0.0083,0.0165 0.0138,0.0238 0.0025,0.003 0.0051,0.005 0.0079,0.008 0.0025,0.003 0.0051,0.005 0.0079,0.008 0.0025,0.003 0.0052,0.005 0.0079,0.008 0.007,0.003 0.01422,0.006 0.0217,0.008 0.45003,0.14823 1.226046,0.23372 1.900989,0.29171 0.674946,0.058 1.244319,0.0833 1.244319,0.0833 0.0026,9e-5 0.0053,9e-5 0.0079,0 0,0 0.353668,-0.004 0.970214,-0.0516 0.165646,-0.004 0.193254,-0.10533 0.193254,-0.10533 0,0 0.03549,-0.11891 -0.193254,-0.11891 -0.616481,0.0498 -0.9619,0.0377 -0.968242,0.0377 0,0 -0.561359,-0.0177 -1.230516,-0.0734 -0.636717,-0.0545 -1.344587,-0.14815 -1.759006,-0.26988 -0.0019,-0.0699 -0.01921,-0.28496 0.05127,-0.58542 0.08121,-0.34676 0.250345,-0.68672 0.605399,-0.78783 0.01259,-0.002 0.304963,-0.0462 0.646809,-0.15677 0.313371,-0.10138 0.635126,-0.28324 0.836119,-0.54176 0.05728,0.0422 0.36953,0.2875 0.855839,0.33935 0.222856,0.0115 0.454191,-0.0698 0.634978,-0.15082 0.146688,-0.0657 0.214253,-0.11152 0.252413,-0.13495 0.109244,0.10839 0.299741,0.22425 0.299741,0.22425 0.07888,0.0675 0.148459,0.0366 0.175776,0.0141 0.03523,-0.029 0.04706,-0.11533 -0.02393,-0.16693 0,0 -0.246533,-0.13774 -0.360873,-0.27187 -0.0025,-0.003 -0.0051,-0.005 -0.0079,-0.008 -0.0025,-0.003 -0.0051,-0.005 -0.0079,-0.008 -0.0066,-0.006 -0.01387,-0.0114 -0.02169,-0.0159 -0.0026,-9e-5 -0.0053,-9e-5 -0.0079,0 -0.0076,-0.004 -0.01551,-0.006 -0.02366,-0.008 -0.0072,-6.9e-4 -0.01448,-6.9e-4 -0.02169,0 -0.0079,-8.2e-4 -0.0158,-8.2e-4 -0.02366,0 -0.0075,0.002 -0.01474,0.005 -0.02169,0.008 -0.0055,0.002 -0.01073,0.005 -0.01578,0.008 0,0 -0.117065,0.0771 -0.281994,0.15082 -0.164928,0.0737 -0.375846,0.13545 -0.52849,0.12701 -0.436892,-0.0515 -0.777568,-0.29761 -0.790764,-0.30759 -1.49e-4,-1.2e-4 -0.0075,-0.008 -0.0079,-0.008 -0.0026,-9e-5 -0.0053,-9e-5 -0.0079,0 -0.0044,-0.003 -0.009,-0.006 -0.0138,-0.008 -0.0025,-0.003 -0.0051,-0.005 -0.0079,-0.008 -0.0077,-0.003 -0.01559,-0.005 -0.02366,-0.006 -0.0072,-6.9e-4 -0.01448,-6.9e-4 -0.02169,0 -0.0079,-8.2e-4 -0.0158,-8.2e-4 -0.02366,0 -0.0039,-8.7e-4 -0.0079,-0.002 -0.01183,-0.002 z"
       id="path1018"
       inkscape:connector-curvature="0"
       sodipodi:nodetypes="cccccccccccccccccccccccsccccccccccccccccscccccccccccsccccccccccc" />
    <path
       style="color:#007bff;font-style:normal;font-variant:normal;font-weight:normal;font-stretch:normal;font-size:medium;line-height:normal;font-family:sans-serif;font-variant-ligatures:normal;font-variant-position:normal;font-variant-caps:normal;font-variant-numeric:normal;font-variant-alternates:normal;font-feature-settings:normal;text-indent:0;text-align:start;text-decoration:none;text-decoration-line:none;text-decoration-style:solid;text-decoration-color:#007bff;letter-spacing:normal;word-spacing:normal;text-transform:none;writing-mode:lr-tb;direction:ltr;text-orientation:mixed;dominant-baseline:auto;baseline-shift:baseline;text-anchor:start;white-space:normal;shape-padding:0;clip-rule:nonzero;display:inline;overflow:visible;visibility:visible;opacity:1;isolation:auto;mix-blend-mode:normal;color-interpolation:sRGB;color-interpolation-filters:linearRGB;solid-color:#007bff;solid-opacity:1;vector-effect:none;fill:#000000;fill-opacity:1;fill-rule:nonzero;stroke:none;stroke-width:0.13229167;stroke-linecap:round;stroke-linejoin:round;stroke-miterlimit:4;stroke-dasharray:none;stroke-dashoffset:0;stroke-opacity:1;color-rendering:auto;image-rendering:auto;shape-rendering:auto;text-rendering:auto;enable-background:accumulate"
       d="m 54.177299,234.1173 c -0.0419,0 -0.07487,0.0346 -0.07487,0.0753 v 0.14055 h -0.267121 c -0.145352,0 -0.2688,0.11905 -0.2688,0.26536 v 0.2139 0.17472 a 0.09027705,0.09084835 0 0 0 0,0.008 v 0.85436 c 0,0.14631 0.123487,0.26536 0.2688,0.26536 h 1.24201 c 0.145314,0 0.263725,-0.11905 0.263725,-0.26536 v -0.9451 c 0.0016,-0.0307 0.0034,-0.0399 0.0034,-0.0906 v -0.21389 c 0,-0.14593 -0.118373,-0.26536 -0.263725,-0.26536 h -0.0034 -0.270517 v -0.14055 c 0,-0.0419 -0.03473,-0.0753 -0.07655,-0.0753 h -0.02366 c -0.0419,0 -0.07487,0.0346 -0.07487,0.0753 v 0.14055 h -0.355576 v -0.14055 c 0,-0.0419 -0.03282,-0.0753 -0.07487,-0.0753 z m -0.341992,0.39722 h 0.267121 v 0.1371 c 0,0.0418 0.03282,0.0753 0.07487,0.0753 h 0.02366 c 0.0419,0 0.07487,-0.0346 0.07487,-0.0753 v -0.1371 h 0.355576 v 0.1371 c 0,0.0418 0.03282,0.0753 0.07487,0.0753 h 0.02366 c 0.0419,0 0.07655,-0.0346 0.07655,-0.0753 v -0.1371 H 55.077 c 0.04843,0 0.08338,0.0346 0.08338,0.0837 v 0.2139 c 0,0.0469 -0.0053,0.0534 -0.0069,0.0837 h -1.407044 v -0.298 c 0,-0.023 0.0092,-0.0449 0.02557,-0.0599 0.01641,-0.0154 0.03873,-0.023 0.06296,-0.023 z m -0.08846,0.56501 h 1.413849 v 0.76876 c 0,0.0488 -0.03511,0.0837 -0.08338,0.0837 h -1.24201 c -0.04842,0 -0.08845,-0.0346 -0.08845,-0.0837 z"
       id="rect1503"
       inkscape:connector-curvature="0" />
  </g>
</svg>
