<?xml version="1.0" encoding="UTF-8" standalone="no"?>
<!-- Created with Inkscape (http://www.inkscape.org/) -->

<svg
   xmlns:dc="http://purl.org/dc/elements/1.1/"
   xmlns:cc="http://creativecommons.org/ns#"
   xmlns:rdf="http://www.w3.org/1999/02/22-rdf-syntax-ns#"
   xmlns:svg="http://www.w3.org/2000/svg"
   xmlns="http://www.w3.org/2000/svg"
   xmlns:sodipodi="http://sodipodi.sourceforge.net/DTD/sodipodi-0.dtd"
   xmlns:inkscape="http://www.inkscape.org/namespaces/inkscape"
   width="118.5957mm"
   height="118.60366mm"
   viewBox="0 0 118.5957 118.60366"
   version="1.1"
   id="svg8"
   sodipodi:docname="setting.svg"
   inkscape:version="0.92.3 (2405546, 2018-03-11)">
  <defs
     id="defs2">
    <clipPath
       clipPathUnits="userSpaceOnUse"
       id="clipPath830">
      <rect
         style="opacity:0.58999999;vector-effect:none;fill:#ffffff;fill-opacity:1;stroke:#007bff;stroke-width:0.13229166;stroke-linecap:round;stroke-linejoin:round;stroke-miterlimit:4;stroke-dasharray:none;stroke-dashoffset:0;stroke-opacity:1"
         id="rect832"
         width="82.396744"
         height="470.50974"
         x="-589.13977"
         y="-209.85843" />
    </clipPath>
  </defs>
  <sodipodi:namedview
     id="base"
     pagecolor="#ffffff"
     bordercolor="#666666"
     borderopacity="1.0"
     inkscape:pageopacity="0.0"
     inkscape:pageshadow="2"
     inkscape:zoom="0.35"
     inkscape:cx="148.11324"
     inkscape:cy="260.85146"
     inkscape:document-units="mm"
     inkscape:current-layer="layer1"
     showgrid="false"
     inkscape:window-width="1366"
     inkscape:window-height="725"
     inkscape:window-x="0"
     inkscape:window-y="20"
     inkscape:window-maximized="1" />
  <metadata
     id="metadata5">
    <rdf:RDF>
      <cc:Work
         rdf:about="">
        <dc:format>image/svg+xml</dc:format>
        <dc:type
           rdf:resource="http://purl.org/dc/dcmitype/StillImage" />
        <dc:title />
      </cc:Work>
    </rdf:RDF>
  </metadata>
  <g
     inkscape:label="Layer 1"
     inkscape:groupmode="layer"
     id="layer1"
     transform="translate(750.10742,-284.04688)">
    <path
       style="color:#000000;font-style:normal;font-variant:normal;font-weight:normal;font-stretch:normal;font-size:medium;line-height:normal;font-family:sans-serif;font-variant-ligatures:normal;font-variant-position:normal;font-variant-caps:normal;font-variant-numeric:normal;font-variant-alternates:normal;font-feature-settings:normal;text-indent:0;text-align:start;text-decoration:none;text-decoration-line:none;text-decoration-style:solid;text-decoration-color:#000000;letter-spacing:normal;word-spacing:normal;text-transform:none;writing-mode:lr-tb;direction:ltr;text-orientation:mixed;dominant-baseline:auto;baseline-shift:baseline;text-anchor:start;white-space:normal;shape-padding:0;clip-rule:nonzero;display:inline;overflow:visible;visibility:visible;opacity:1;isolation:auto;mix-blend-mode:normal;color-interpolation:sRGB;color-interpolation-filters:linearRGB;solid-color:#000000;solid-opacity:1;vector-effect:none;fill:#000000;fill-opacity:1;fill-rule:nonzero;stroke:none;stroke-width:5.9609623;stroke-linecap:round;stroke-linejoin:round;stroke-miterlimit:4;stroke-dasharray:none;stroke-dashoffset:0;stroke-opacity:1;color-rendering:auto;image-rendering:auto;shape-rendering:auto;text-rendering:auto;enable-background:accumulate"
       d="m -690.95117,320.12109 c -12.77754,0.0778 -23.14365,10.54851 -23.0918,23.32618 0.0519,12.77766 10.50351,23.1646 23.28125,23.13867 12.77775,-0.0259 23.18555,-10.45465 23.18555,-23.23242 a 2.9807792,2.9807792 0 0 0 -0.004,-0.0762 2.9807792,2.9807792 0 0 0 0.002,-0.11328 c -2.2e-4,-0.0267 -0.008,-0.0514 -0.008,-0.0781 a 2.9807792,2.9807792 0 0 0 -0.0137,-0.12696 c -0.21645,-12.68029 -10.64425,-22.91524 -23.35156,-22.83789 z m 0.0371,5.96094 c 9.56032,-0.0582 17.29741,7.57067 17.375,17.13086 a 2.9807792,2.9807792 0 0 0 0.004,0.0703 2.9807792,2.9807792 0 0 0 -0.002,0.0703 c 0,9.5605 -7.6778,17.25208 -17.23828,17.27148 -9.56048,0.0194 -17.26784,-7.64075 -17.30664,-17.20117 -0.0388,-9.56043 7.60764,-17.28361 17.16797,-17.3418 z"
       id="path985"
       inkscape:connector-curvature="0" />
    <path
       style="color:#000000;font-style:normal;font-variant:normal;font-weight:normal;font-stretch:normal;font-size:medium;line-height:normal;font-family:sans-serif;font-variant-ligatures:normal;font-variant-position:normal;font-variant-caps:normal;font-variant-numeric:normal;font-variant-alternates:normal;font-feature-settings:normal;text-indent:0;text-align:start;text-decoration:none;text-decoration-line:none;text-decoration-style:solid;text-decoration-color:#000000;letter-spacing:normal;word-spacing:normal;text-transform:none;writing-mode:lr-tb;direction:ltr;text-orientation:mixed;dominant-baseline:auto;baseline-shift:baseline;text-anchor:start;white-space:normal;shape-padding:0;clip-rule:nonzero;display:inline;overflow:visible;visibility:visible;opacity:1;isolation:auto;mix-blend-mode:normal;color-interpolation:sRGB;color-interpolation-filters:linearRGB;solid-color:#000000;solid-opacity:1;vector-effect:none;fill:#000000;fill-opacity:1;fill-rule:nonzero;stroke:none;stroke-width:5.9609623;stroke-linecap:round;stroke-linejoin:round;stroke-miterlimit:4;stroke-dasharray:none;stroke-dashoffset:0;stroke-opacity:1;color-rendering:auto;image-rendering:auto;shape-rendering:auto;text-rendering:auto;enable-background:accumulate"
       d="m -688.47852,284.04688 -4.66601,0.006 c -2.31332,0 -4.45986,1.01133 -5.77539,2.48633 -1.31553,1.47501 -1.92321,3.18501 -2.32813,4.80078 -0.72388,2.88859 -0.92692,5.45812 -1.17187,6.59571 -4.3907,1.1168 -8.57459,2.84918 -12.4668,5.16797 -1.56556,-1.14012 -3.26796,-2.67932 -5.5625,-4.07032 -1.40242,-0.85017 -3.05285,-1.59994 -5.01758,-1.60156 -1.96472,-0.002 -4.02466,0.92109 -5.62109,2.51758 l -3.30273,3.30273 c -1.6357,1.63569 -2.43872,3.86672 -2.32618,5.83985 0.11255,1.97313 0.89205,3.61214 1.74805,5.04101 1.50308,2.509 3.10154,4.38738 3.76758,5.39453 -2.25884,3.82165 -3.95431,7.92102 -5.0586,12.22071 -1.15141,0.2438 -3.68919,0.44594 -6.5625,1.16601 -1.61577,0.40493 -3.32576,1.01266 -4.80078,2.32813 -1.47502,1.31546 -2.48437,3.4621 -2.48437,5.77539 v 4.67187 c 0,2.28476 0.82959,4.41621 2.24804,5.80274 1.41846,1.38652 3.135,2.00705 4.7461,2.38867 2.65752,0.62948 4.9881,0.74985 6.88476,1.06641 1.11506,4.3244 2.83086,8.44483 5.11329,12.2832 -0.62107,0.9691 -2.31378,2.95282 -3.85157,5.51953 -0.85605,1.42883 -1.63545,3.06786 -1.74804,5.04102 -0.1126,1.97315 0.69044,4.20411 2.32617,5.83984 l 3.30273,3.30273 c 1.61677,1.61676 3.71273,2.53729 5.69727,2.51368 1.98453,-0.0236 3.63734,-0.7996 5.04687,-1.66993 2.32242,-1.43398 4.05341,-2.99345 5.61719,-4.10937 3.846,2.29303 7.97712,4.01498 12.3125,5.13476 0.24383,1.15165 0.44598,3.68934 1.16602,6.5625 0.40492,1.61577 1.01069,3.32578 2.32617,4.80079 1.31547,1.475 3.46211,2.48437 5.77539,2.48437 h 4.67187 c 2.28526,0 4.41825,-0.829 5.80469,-2.24805 1.38644,-1.41904 2.00732,-3.13661 2.38867,-4.74804 0.62832,-2.65502 0.74857,-4.98109 1.06446,-6.87696 4.28907,-1.08747 8.37923,-2.76584 12.19726,-5.00195 0.94068,0.58739 2.99864,2.3503 5.60547,3.91211 1.42884,0.85605 3.06785,1.63545 5.04102,1.74805 1.97316,0.11259 4.20602,-0.69047 5.84179,-2.32617 l 3.30078,-3.30274 c 1.61735,-1.61729 2.5399,-3.71412 2.51563,-5.69922 -0.0243,-1.9851 -0.80284,-3.6392 -1.67383,-5.04883 -1.45145,-2.34907 -3.04476,-4.10818 -4.15625,-5.67968 2.32385,-3.88417 4.06625,-8.05911 5.19141,-12.44336 1.90088,-0.31356 4.22415,-0.43439 6.87109,-1.06641 1.60712,-0.38374 3.3201,-1.00769 4.73242,-2.39453 1.41232,-1.38684 2.23633,-3.5142 2.23633,-5.79297 v -4.67187 c 0,-2.31333 -1.01134,-4.45984 -2.48633,-5.77539 -1.47499,-1.31556 -3.18498,-1.92123 -4.80078,-2.32618 -2.88782,-0.72373 -5.45516,-0.92893 -6.59375,-1.17382 -1.11787,-4.32393 -2.83594,-8.44403 -5.12109,-12.28126 1.1142,-1.56614 2.68453,-3.30535 4.125,-5.63671 0.87097,-1.40964 1.64955,-3.06375 1.67383,-5.04883 0.0243,-1.98508 -0.89833,-4.08387 -2.51563,-5.70117 l -3.30078,-3.30079 c -1.63567,-1.63572 -3.86865,-2.43867 -5.8418,-2.32617 -1.97314,0.11251 -3.61213,0.89206 -5.04101,1.74805 -2.55815,1.5325 -4.52461,3.21151 -5.5,3.83984 -3.84484,-2.28896 -7.97163,-4.00988 -12.30469,-5.12695 -0.31463,-1.89993 -0.43469,-4.22674 -1.06641,-6.87695 -0.38341,-1.60851 -1.00601,-3.32205 -2.39257,-4.73633 -1.38657,-1.41428 -3.51636,-2.24024 -5.79688,-2.24023 a 2.9807792,2.9807792 0 0 0 -0.004,0 z m 0.004,5.96093 c 1.08173,0 1.28138,0.18831 1.54102,0.45313 0.25963,0.26482 0.59911,0.8944 0.84961,1.94531 0.50099,2.10182 0.44759,5.40168 1.36132,8.60156 a 2.9807792,2.9807792 0 0 0 2.25391,2.09766 c 5.05563,1.06248 9.86494,3.06816 14.17773,5.91211 a 2.9807792,2.9807792 0 0 0 3.80469,-0.4375 l 0.14844,-0.15625 c 2.33793,-1.27085 4.21067,-3.05814 5.98828,-4.12305 0.99264,-0.59465 1.84068,-0.88303 2.31641,-0.91016 0.47572,-0.0271 0.65569,-0.0416 1.28711,0.58985 l 3.30078,3.30273 c 0.76776,0.76777 0.77408,1.0399 0.76953,1.41211 -0.005,0.37222 -0.21211,1.06204 -0.7832,1.98633 -1.06779,1.72818 -3.18794,3.90065 -4.78125,6.5625 a 2.9807792,2.9807792 0 0 0 -0.25391,3.60547 c 2.83803,4.30743 4.84057,9.11034 5.90234,14.1582 a 2.9807792,2.9807792 0 0 0 2.98828,2.36719 l 0.20118,-0.006 c 2.55326,0.75555 5.14297,0.81624 7.15429,1.32031 1.12256,0.28134 1.92759,0.67697 2.28321,0.99414 0.35561,0.31718 0.49218,0.4333 0.49218,1.32618 v 4.67187 c 0,1.08163 -0.18921,1.28187 -0.45312,1.54102 -0.26391,0.25914 -0.8909,0.59924 -1.93945,0.84961 -2.09712,0.50073 -5.39221,0.4479 -8.58985,1.35742 a 2.9807792,2.9807792 0 0 0 -2.10156,2.25781 c -1.0652,5.0993 -3.09068,9.94953 -5.9668,14.29297 a 2.9807792,2.9807792 0 0 0 0.30078,3.66992 c 1.59192,2.651 3.70096,4.81988 4.76563,6.54297 0.5711,0.92428 0.77865,1.61416 0.7832,1.98633 0.005,0.37217 -0.002,0.64432 -0.76953,1.41211 l -3.30078,3.30273 c -0.63149,0.63146 -0.81138,0.61699 -1.28711,0.58985 -0.47573,-0.0272 -1.32377,-0.31545 -2.31641,-0.91016 -1.77859,-1.0656 -3.65199,-2.85419 -5.99218,-4.125 l -0.21875,-0.23047 a 2.9807792,2.9807792 0 0 0 -3.78516,-0.44922 c -4.30035,2.79303 -9.08491,4.75741 -14.10742,5.79102 a 2.9807792,2.9807792 0 0 0 -2.26367,2.09375 c -0.92545,3.2079 -0.86569,6.51606 -1.36524,8.62695 -0.24977,1.05544 -0.5919,1.68931 -0.85156,1.95508 -0.25966,0.26576 -0.45634,0.45312 -1.54102,0.45312 h -4.67187 c -0.89275,0 -1.00903,-0.13658 -1.32617,-0.49218 -0.31714,-0.35561 -0.71281,-1.15866 -0.99414,-2.28125 -0.50383,-2.0104 -0.56362,-4.60015 -1.31836,-7.15235 l 0.004,-0.16406 a 2.9807792,2.9807792 0 0 0 -2.36718,-2.99609 c -5.05447,-1.06278 -9.86201,-3.06866 -14.17383,-5.91211 a 2.9807792,2.9807792 0 0 0 -3.08008,-0.12305 c -2.92644,1.61256 -5.22462,3.99589 -7.07227,5.13672 -0.92382,0.57041 -1.61422,0.77877 -1.98632,0.7832 -0.37211,0.004 -0.6446,-0.002 -1.41211,-0.76953 l -3.30274,-3.30273 c -0.63144,-0.63145 -0.61699,-0.80947 -0.58984,-1.28516 0.0271,-0.47569 0.31544,-1.32573 0.91015,-2.31836 1.06528,-1.77804 2.85227,-3.65108 4.12305,-5.99023 l 0.17188,-0.16211 a 2.9807792,2.9807792 0 0 0 0.4375,-3.80078 c -2.83843,-4.30848 -4.84099,-9.11305 -5.90235,-14.16211 a 2.9807792,2.9807792 0 0 0 -2.09179,-2.25 c -3.20694,-0.92402 -6.51331,-0.86551 -8.62305,-1.36524 -1.05487,-0.24986 -1.68942,-0.59188 -1.95508,-0.85156 -0.26566,-0.25968 -0.45312,-0.45654 -0.45312,-1.54102 v -4.67187 c 0,-0.89274 0.13657,-1.00903 0.49218,-1.32617 0.35562,-0.31715 1.15864,-0.71281 2.28125,-0.99414 2.01201,-0.50423 4.60405,-0.56369 7.15821,-1.32032 l 0.16601,0.004 a 2.9807792,2.9807792 0 0 0 2.99219,-2.36914 c 1.04827,-5.02201 3.02866,-9.80363 5.83594,-14.09766 a 2.9807792,2.9807792 0 0 0 -0.45118,-3.80078 l -0.0605,-0.0566 c -1.27085,-2.33783 -3.05815,-4.21071 -4.12305,-5.98828 -0.59467,-0.99264 -0.88302,-1.84067 -0.91015,-2.31641 -0.0271,-0.47574 -0.0416,-0.65376 0.58984,-1.28515 l 3.30273,-3.30274 c 0.7587,-0.75873 1.03914,-0.77178 1.40235,-0.77148 0.3632,3e-4 1.029,0.19108 1.93164,0.73828 1.80528,1.0944 4.0797,3.41763 6.92383,5.04883 a 2.9807792,2.9807792 0 0 0 3.12304,-0.0977 c 4.35746,-2.87247 9.22227,-4.88836 14.33399,-5.94141 a 2.9807792,2.9807792 0 0 0 2.37695,-2.99218 l -0.004,-0.20117 c 0.75697,-2.55461 0.81407,-5.14589 1.31836,-7.15821 0.28132,-1.12256 0.677,-1.92761 0.99414,-2.2832 0.31715,-0.35559 0.43525,-0.49024 1.32813,-0.49024 a 2.9807792,2.9807792 0 0 0 0.004,0 z"
       id="path987"
       inkscape:connector-curvature="0" />
  </g>
</svg>
