<?xml version="1.0" encoding="UTF-8" standalone="no"?>
<svg
   xmlns:dc="http://purl.org/dc/elements/1.1/"
   xmlns:cc="http://creativecommons.org/ns#"
   xmlns:rdf="http://www.w3.org/1999/02/22-rdf-syntax-ns#"
   xmlns:svg="http://www.w3.org/2000/svg"
   xmlns="http://www.w3.org/2000/svg"
   xmlns:sodipodi="http://sodipodi.sourceforge.net/DTD/sodipodi-0.dtd"
   xmlns:inkscape="http://www.inkscape.org/namespaces/inkscape"
   aria-hidden="true"
   data-prefix="fab"
   data-icon="telegram-plane"
   class="svg-inline--fa fa-telegram-plane fa-w-14"
   role="img"
   viewBox="0 0 29.383768 25.000192"
   version="1.1"
   id="svg871"
   sodipodi:docname="telegram-plane.svg"
   inkscape:version="0.92.3 (2405546, 2018-03-11)"
   width="29.383768"
   height="25.000193">
  <metadata
     id="metadata877">
    <rdf:RDF>
      <cc:Work
         rdf:about="">
        <dc:format>image/svg+xml</dc:format>
        <dc:type
           rdf:resource="http://purl.org/dc/dcmitype/StillImage" />
        <dc:title></dc:title>
      </cc:Work>
    </rdf:RDF>
  </metadata>
  <defs
     id="defs875" />
  <sodipodi:namedview
     pagecolor="#ffffff"
     bordercolor="#666666"
     borderopacity="1"
     objecttolerance="10"
     gridtolerance="10"
     guidetolerance="10"
     inkscape:pageopacity="0"
     inkscape:pageshadow="2"
     inkscape:window-width="1366"
     inkscape:window-height="725"
     id="namedview873"
     showgrid="false"
     inkscape:zoom="0.1401784"
     inkscape:cx="-1142.9528"
     inkscape:cy="388.00386"
     inkscape:window-x="0"
     inkscape:window-y="20"
     inkscape:window-maximized="1"
     inkscape:current-layer="svg871" />
  <path
     style="color:#007bff;font-style:normal;font-variant:normal;font-weight:normal;font-stretch:normal;font-size:medium;line-height:normal;font-family:sans-serif;font-variant-ligatures:normal;font-variant-position:normal;font-variant-caps:normal;font-variant-numeric:normal;font-variant-alternates:normal;font-feature-settings:normal;text-indent:0;text-align:start;text-decoration:none;text-decoration-line:none;text-decoration-style:solid;text-decoration-color:#007bff;letter-spacing:normal;word-spacing:normal;text-transform:none;writing-mode:lr-tb;direction:ltr;text-orientation:mixed;dominant-baseline:auto;baseline-shift:baseline;text-anchor:start;white-space:normal;shape-padding:0;clip-rule:nonzero;display:inline;overflow:visible;visibility:visible;opacity:1;isolation:auto;mix-blend-mode:normal;color-interpolation:sRGB;color-interpolation-filters:linearRGB;solid-color:#007bff;solid-opacity:1;vector-effect:none;fill:#007bff;fill-opacity:1;fill-rule:nonzero;stroke:#007bff;stroke-width:0.63086367;stroke-linecap:round;stroke-linejoin:round;stroke-miterlimit:4;stroke-dasharray:none;stroke-dashoffset:0;stroke-opacity:1;color-rendering:auto;image-rendering:auto;shape-rendering:auto;text-rendering:auto;enable-background:accumulate"
     d="m 28.588585,0.31543143 a 0.47319504,0.47319504 0 0 0 -0.271321,0.0907 c -0.0053,0.003 -0.0052,0.003 -0.01737,0.009 -0.04296,0.0209 -0.119781,0.0555 -0.220557,0.0988 -0.201552,0.0866 -0.502467,0.21009 -0.884318,0.36299 -0.763701,0.30581997 -1.853335,0.73074997 -3.158261,1.23375997 -2.60985,1.00602 -6.082028,2.32481 -9.55093,3.63572 C 7.548024,8.3682214 0.62272241,10.958911 0.62272241,10.958911 a 0.47319504,0.47319504 0 0 0 -0.0200841,0.87828 l 10.76300269,4.59742 -0.822711,7.5631 a 0.47319504,0.47319504 0 0 0 0.808787,0.38197 l 4.559715,-4.66482 7.279821,4.89338 a 0.47319504,0.47319504 0 0 0 0.726109,-0.29128 L 28.982015,1.2352414 v -1.3e-4 c 0.004,-0.004 0.01773,-0.0157 0.02095,-0.0186 0.01188,-0.0106 0.01813,-0.0162 0.02452,-0.0219 7.95e-4,-7.1e-4 7.7e-4,-6e-4 0.0015,-0.001 0.0019,-0.002 0.0066,-0.006 0.0078,-0.007 9.96e-4,-8.9e-4 0.0014,-0.001 0.0018,-0.002 2.52e-4,-2.2e-4 3.79e-4,-3.9e-4 5.05e-4,-4.9e-4 6.3e-5,-7e-5 2.52e-4,-1.1e-4 2.52e-4,-1.2e-4 10e-7,0 -0.03287,-0.0369 -0.03697,-0.0415 l 0.05545,-0.25295997 a 0.47319504,0.47319504 0 0 0 -0.469205,-0.57394 z m -0.293131,0.10769 a 0.47319504,0.47319504 0 0 0 -0.05729,0.0562 c 0.02487,-0.0298 0.04569,-0.0493 0.05729,-0.0562 z M 26.585716,2.1305214 11.780504,15.582571 2.0585503,11.429721 c 0.9749889,-0.3649 6.3747111,-2.3846796 12.7618047,-4.7983896 3.469883,-1.31127 6.943007,-2.63042 9.556721,-3.63794 0.910614,-0.35101 1.542601,-0.60079 2.20864,-0.86287 z m 1.187058,0.2001 -4.630687,21.1042396 -7.019837,-4.71879 -3.505112,-2.61488 z m -15.51789,14.6808896 2.877206,2.14653 -3.50043,3.58126 z"
     id="path869"
     inkscape:connector-curvature="0" />
</svg>
