<?xml version="1.0" encoding="UTF-8" standalone="no"?>
<svg
   xmlns:dc="http://purl.org/dc/elements/1.1/"
   xmlns:cc="http://creativecommons.org/ns#"
   xmlns:rdf="http://www.w3.org/1999/02/22-rdf-syntax-ns#"
   xmlns:svg="http://www.w3.org/2000/svg"
   xmlns="http://www.w3.org/2000/svg"
   xmlns:sodipodi="http://sodipodi.sourceforge.net/DTD/sodipodi-0.dtd"
   xmlns:inkscape="http://www.inkscape.org/namespaces/inkscape"
   aria-hidden="true"
   data-prefix="fab"
   data-icon="telegram-plane"
   class="svg-inline--fa fa-telegram-plane fa-w-14"
   role="img"
   viewBox="0 0 448 512"
   version="1.1"
   id="svg871"
   sodipodi:docname="telegram-planesvg.svg"
   inkscape:version="0.92.3 (2405546, 2018-03-11)">
  <metadata
     id="metadata877">
    <rdf:RDF>
      <cc:Work
         rdf:about="">
        <dc:format>image/svg+xml</dc:format>
        <dc:type
           rdf:resource="http://purl.org/dc/dcmitype/StillImage" />
        <dc:title></dc:title>
      </cc:Work>
    </rdf:RDF>
  </metadata>
  <defs
     id="defs875" />
  <sodipodi:namedview
     pagecolor="#ffffff"
     bordercolor="#666666"
     borderopacity="1"
     objecttolerance="10"
     gridtolerance="10"
     guidetolerance="10"
     inkscape:pageopacity="0"
     inkscape:pageshadow="2"
     inkscape:window-width="1366"
     inkscape:window-height="725"
     id="namedview873"
     showgrid="false"
     inkscape:zoom="0.1401784"
     inkscape:cx="-1155.3706"
     inkscape:cy="447.51529"
     inkscape:window-x="0"
     inkscape:window-y="20"
     inkscape:window-maximized="1"
     inkscape:current-layer="svg871" />
  <path
     style="color:#007bff;font-style:normal;font-variant:normal;font-weight:normal;font-stretch:normal;font-size:medium;line-height:normal;font-family:sans-serif;font-variant-ligatures:normal;font-variant-position:normal;font-variant-caps:normal;font-variant-numeric:normal;font-variant-alternates:normal;font-feature-settings:normal;text-indent:0;text-align:start;text-decoration:none;text-decoration-line:none;text-decoration-style:solid;text-decoration-color:#007bff;letter-spacing:normal;word-spacing:normal;text-transform:none;writing-mode:lr-tb;direction:ltr;text-orientation:mixed;dominant-baseline:auto;baseline-shift:baseline;text-anchor:start;white-space:normal;shape-padding:0;clip-rule:nonzero;display:inline;overflow:visible;visibility:visible;opacity:1;isolation:auto;mix-blend-mode:normal;color-interpolation:sRGB;color-interpolation-filters:linearRGB;solid-color:#007bff;solid-opacity:1;vector-effect:none;fill:#007bff;fill-opacity:1;fill-rule:nonzero;stroke:#007bff;stroke-width:10;stroke-linecap:round;stroke-linejoin:round;stroke-miterlimit:4;stroke-dasharray:none;stroke-dashoffset:0;stroke-opacity:1;color-rendering:auto;image-rendering:auto;shape-rendering:auto;text-rendering:auto;enable-background:accumulate"
     d="M 440.74805 61.207031 A 7.50075 7.50075 0 0 0 436.44727 62.644531 C 436.36297 62.688911 436.36446 62.689641 436.17188 62.783203 C 435.49095 63.113991 434.27321 63.663163 432.67578 64.349609 C 429.48092 65.722503 424.71103 67.679729 418.6582 70.103516 C 406.55255 74.951089 389.28045 81.686788 368.5957 89.660156 C 327.22621 105.60689 272.18773 126.51143 217.20117 147.29102 C 107.22806 188.85018 -2.546875 229.91602 -2.546875 229.91602 A 7.50075 7.50075 0 0 0 -2.8652344 243.83789 L 167.74219 316.71289 L 154.70117 436.59766 A 7.50075 7.50075 0 0 0 167.52148 442.65234 L 239.79883 368.70898 L 355.19336 446.27539 A 7.50075 7.50075 0 0 0 366.70312 441.6582 L 446.98438 75.783203 L 446.98438 75.78125 C 447.04807 75.72449 447.26547 75.531742 447.31641 75.486328 C 447.50481 75.31835 447.60374 75.229022 447.70508 75.138672 C 447.71768 75.127432 447.71732 75.129171 447.72852 75.119141 C 447.75882 75.092161 447.83283 75.024521 447.85156 75.007812 C 447.86736 74.993752 447.87406 74.988502 447.88086 74.982422 C 447.88486 74.978822 447.88667 74.976209 447.88867 74.974609 C 447.88967 74.973409 447.89258 74.972956 447.89258 74.972656 C 447.89259 74.972647 447.37148 74.387197 447.30664 74.314453 L 448.18555 70.304688 A 7.50075 7.50075 0 0 0 440.74805 61.207031 z M 436.10156 62.914062 A 7.50075 7.50075 0 0 0 435.19336 63.804688 C 435.58756 63.33248 435.91767 63.023775 436.10156 62.914062 z M 409 89.978516 L 174.31836 303.21094 L 20.212891 237.38281 C 35.667719 231.59876 121.26026 199.58254 222.50391 161.32227 C 277.50601 140.53681 332.55949 119.6266 373.99023 103.65625 C 388.42462 98.092213 398.44244 94.132962 409 89.978516 z M 427.81641 93.150391 L 354.41406 427.67969 L 243.14062 352.88086 L 187.58008 311.43164 L 427.81641 93.150391 z M 181.83789 325.86133 L 227.44531 359.88672 L 171.95898 416.6543 L 181.83789 325.86133 z "
     id="path869" />
</svg>
